<svg id="Layer_1" data-name="Layer 1" xmlns="http://www.w3.org/2000/svg" viewBox="0 0 81.19 100"><defs><style>.cls-1{fill:#a0bfe4;}</style></defs><path class="cls-1" d="M184.13,83c.5-1.87,2-3.1,3.36-2.73s2,2.17,1.54,4.05-2,3.09-3.36,2.73S183.63,84.84,184.13,83Zm-3.89,4c1.35-.36,2-2.18,1.54-4s-2-3.1-3.36-2.74-2,2.18-1.54,4S178.88,87.38,180.24,87Zm-3.84.63c-.86-1.49-2.43-2.19-3.5-1.57s-1.25,2.33-.39,3.81,2.42,2.19,3.5,1.57S177.26,89.14,176.4,87.65Zm6.55.81c-2.6,0-7.25,3.79-7.25,8.47S179,98.14,183,98.14s7.25,3.46,7.25-1.21S185.55,88.46,183,88.46Zm6.56-.81c-.86,1.48-.69,3.19.39,3.81s2.64-.08,3.5-1.57.69-3.19-.39-3.81S190.37,86.16,189.51,87.65Zm21.41,2.13c10.66,11.6,15.34,22.67,11.05,28.54-1.9,2.59-5.28,3.81-9.69,3.81a41.63,41.63,0,0,1-13-2.52,62.08,62.08,0,0,1-2.1,6,4.76,4.76,0,0,0-2.15-1,61.17,61.17,0,0,0,2-5.84A95.53,95.53,0,0,1,183,112a99.23,99.23,0,0,1-11.11,5.62c-1,.43-2,.82-3,1.19,3.29,11.27,8.43,18.64,14.07,18.64,2.71,0,5.29-1.69,7.62-4.7a4.79,4.79,0,0,0,1.94,1.27c-2.83,3.68-6.07,5.75-9.56,5.75-6.77,0-12.67-7.85-16.32-20.16a41.52,41.52,0,0,1-13,2.52c-4.42,0-7.79-1.22-9.69-3.81-4.29-5.87.39-16.94,11.05-28.54-10.66-11.6-15.34-22.68-11.05-28.55,1.46-2,3.82-3.18,6.85-3.63a4.74,4.74,0,0,0-.45,2,2.06,2.06,0,0,0,0,.35,7.2,7.2,0,0,0-4.55,2.62c-3.53,4.83,1.14,14.89,10.79,25.47,2-2,4.08-4.07,6.37-6.07a102.37,102.37,0,0,1,3-19.8,52.56,52.56,0,0,0-6-1.72,4.71,4.71,0,0,0,.08-.85,5,5,0,0,0-.25-1.54,52.09,52.09,0,0,1,6.8,1.85c3.65-12.3,9.55-20.16,16.32-20.16s12.68,7.86,16.32,20.16c10.7-3.63,19.22-3.45,22.7,1.3C226.26,67.1,221.58,78.18,210.92,89.78Zm-7.75,0c0,1.52,0,3-.08,4.52,1.63-1.5,3.16-3,4.61-4.51q-2.16-2.27-4.61-4.52C203.14,86.74,203.17,88.24,203.17,89.77Zm-2.5-6.67c-2.53-2.21-5.23-4.38-8.1-6.47-3.2-2.34-6.42-4.47-9.62-6.37-3.19,1.9-6.41,4-9.61,6.37-2.87,2.09-5.57,4.26-8.1,6.47-.13,2.18-.19,4.41-.19,6.67s.06,4.49.19,6.68c2.53,2.2,5.23,4.37,8.1,6.47,3.2,2.34,6.43,4.47,9.62,6.36,3.19-1.89,6.42-4,9.61-6.36,2.87-2.1,5.57-4.27,8.1-6.47q.2-3.28.19-6.68C200.86,87.51,200.8,85.28,200.67,83.1Zm-.22-3.26A100.66,100.66,0,0,0,197.67,63a93.17,93.17,0,0,0-12.41,5.91c2.87,1.77,5.78,3.71,8.68,5.84C196.21,76.42,198.39,78.12,200.45,79.84Zm-31.57-19.1A94.49,94.49,0,0,1,183,67.55,96.17,96.17,0,0,1,197,60.73c-3.3-11.26-8.43-18.64-14.08-18.64S172.17,49.48,168.88,60.74Zm-3.42,19.09c2.06-1.71,4.23-3.41,6.5-5.07,2.9-2.13,5.81-4.07,8.69-5.84A93.76,93.76,0,0,0,168.24,63,100.54,100.54,0,0,0,165.46,79.83Zm-7.25,10c1.44,1.5,3,3,4.6,4.5-.05-1.48-.08-3-.08-4.51s0-3,.08-4.51Q160.37,87.51,158.21,89.78ZM166,117.36a102.61,102.61,0,0,1-3-19.8c-2.29-2-4.42-4-6.37-6.07C147,102.06,142.28,112.12,145.81,117,148.66,120.85,156.34,120.7,166,117.36Zm14.65-6.74c-2.87-1.76-5.78-3.71-8.69-5.83-2.27-1.67-4.44-3.36-6.49-5.08a100,100,0,0,0,2.77,16.83A92.06,92.06,0,0,0,180.65,110.62Zm17,5.91a99.85,99.85,0,0,0,2.77-16.83q-3.09,2.58-6.5,5.09-4.37,3.18-8.68,5.83A93.76,93.76,0,0,0,197.67,116.53Zm11.64-25c-2,2-4.09,4.06-6.38,6.08a103.33,103.33,0,0,1-3,19.78,39.76,39.76,0,0,0,12.47,2.51c3.57,0,6.27-.93,7.72-2.91C223.63,112.12,219,102.06,209.31,91.49Zm0-3.43c7.48-8.19,12-16.07,12-21.46a6.7,6.7,0,0,0-1.18-4c-1.46-2-4.15-2.91-7.72-2.91a39.82,39.82,0,0,0-12.47,2.51,103.18,103.18,0,0,1,3,19.8C205.22,84,207.35,86,209.31,88.06Zm-12.38,38.15a4.17,4.17,0,0,0-2.15-1,3.6,3.6,0,0,0-.66-.06,4.3,4.3,0,0,0-4.29,4.29,4.29,4.29,0,0,0,3,4.1,4,4,0,0,0,1.24.19,4.3,4.3,0,0,0,4.3-4.29A4.21,4.21,0,0,0,196.93,126.21Zm-41.71-62.3a4.3,4.3,0,0,0,4.22-3.56,3.54,3.54,0,0,0,.07-.73,4.36,4.36,0,0,0-.34-1.66,4.28,4.28,0,0,0-7.69-.43,4.11,4.11,0,0,0-.56,2.09,2.09,2.09,0,0,0,0,.25A4.28,4.28,0,0,0,155.22,63.91Z" transform="translate(-142.36 -39.77)"/></svg>