<svg id="Layer_1" data-name="Layer 1" xmlns="http://www.w3.org/2000/svg" viewBox="0 0 72.29 100"><defs><style>.cls-1{fill:#a6bfe0;}</style></defs><path class="cls-1" d="M173.86,110.23a83.25,83.25,0,0,0-11.35,15.46,1.24,1.24,0,0,1-1.11.67,1.19,1.19,0,0,1-.58-.15,1.25,1.25,0,0,1-.53-1.69,74,74,0,0,1,11.66-17c.1.43.21.85.33,1.28,0,0,0,0,0,.06a1.71,1.71,0,0,0,.29.57.32.32,0,0,0,.08.09,1.82,1.82,0,0,0,1.16.66h0Zm25.7-7.21c1.78,5,2.87,9.45,2.87,12.72a32.32,32.32,0,1,1-64.64,0c0-15.3,23.76-55.52,30.54-66.68a2.09,2.09,0,0,1,3.57,0c2.52,4.14,7.37,12.29,12.48,21.69,5.63-3.51,12.91-5.53,21.72-5.53H207a21.85,21.85,0,0,1,2.5,6.76C211.71,84.56,207.59,95.93,199.56,103Zm-.89,12.72a35.35,35.35,0,0,0-2.22-10.32,32,32,0,0,1-22.59,4.81c.13-.66.3-1.3.49-1.93,2.9-9.67,12-15.72,15.87-17.89,1-.59,1.69-.89,1.72-.91a1.26,1.26,0,0,0,.61-1.67,1.24,1.24,0,0,0-1.66-.61c-.12,0-.77.35-1.76.91-4.08,2.24-14,8.68-17.18,19.44-3.54-14.13-.13-26.89,9.36-34.63-3.57-6.57-7.4-13.23-11.2-19.55-14.06,23.43-28.55,51.41-28.55,62.35a28.56,28.56,0,0,0,57.11,0Z" transform="translate(-137.79 -48.06)"/></svg>