<svg id="Layer_1" data-name="Layer 1" xmlns="http://www.w3.org/2000/svg" viewBox="0 0 93.34 100"><defs><style>.cls-1{fill:#a6bfe0;}</style></defs><path class="cls-1" d="M166.29,61.37,187.5,49.12l21.22,12.25v24.5L187.5,98.11,166.29,85.87V61.37m-2.52,0v24.5A2.51,2.51,0,0,0,165,88l21.22,12.25a2.5,2.5,0,0,0,2.51,0L210,88a2.51,2.51,0,0,0,1.26-2.17V61.37A2.52,2.52,0,0,0,210,59.19L188.76,47a2.5,2.5,0,0,0-2.51,0L165,59.19a2.52,2.52,0,0,0-1.26,2.18Z" transform="translate(-121.8 -46.61)"/><path class="cls-1" d="M172.7,65.07l14.8-8.54,14.8,8.54V82.16l-14.8,8.55-14.8-8.55V65.07m-1.67-1v19l16.47,9.51L204,83.13v-19L187.5,54.59,171,64.11Z" transform="translate(-121.8 -46.61)"/><path class="cls-1" d="M139.94,107.35,161.16,95.1l21.21,12.25v24.5L161.16,144.1l-21.22-12.25v-24.5m-2.51,0v24.5a2.49,2.49,0,0,0,1.26,2.17l21.21,12.25a2.5,2.5,0,0,0,2.51,0L183.63,134a2.48,2.48,0,0,0,1.25-2.17v-24.5a2.49,2.49,0,0,0-1.25-2.17L162.41,92.93a2.5,2.5,0,0,0-2.51,0l-21.21,12.25a2.5,2.5,0,0,0-1.26,2.17Z" transform="translate(-121.8 -46.61)"/><path class="cls-1" d="M146.36,111.06l14.8-8.55,14.8,8.55v17.09l-14.8,8.54-14.8-8.54V111.06m-1.68-1v19l16.48,9.51,16.47-9.51v-19l-16.47-9.51-16.48,9.51Z" transform="translate(-121.8 -46.61)"/><path class="cls-1" d="M133,65.84l-1,8.54-5.31-6.76a.62.62,0,0,0-.88-.1.63.63,0,0,0-.11.88L131,75.15l-8.54-1a.63.63,0,0,0-.14,1.25l8.53,1-6.76,5.31a.63.63,0,0,0,.78,1l6.75-5.31-1,8.53a.62.62,0,0,0,.54.7.63.63,0,0,0,.7-.55l1-8.53,5.32,6.75a.63.63,0,0,0,.88.11.67.67,0,0,0,.24-.5.62.62,0,0,0-.14-.38l-5.31-6.76,8.53,1a.63.63,0,0,0,.7-.55s0,0,0-.07a.64.64,0,0,0-.56-.63l-8.53-1,6.75-5.31a.63.63,0,0,0,.11-.88.63.63,0,0,0-.88-.11l-6.76,5.31,1-8.53s0,0,0-.07a.63.63,0,0,0-1.26-.08Z" transform="translate(-121.8 -46.61)"/><path class="cls-1" d="M208.24,113.73l-.7,5.8-5.79-.69a.62.62,0,1,0-.15,1.24l5.8.7-.7,5.8a.63.63,0,0,0,.55.69.62.62,0,0,0,.7-.55l.69-5.79,5.8.69a.63.63,0,0,0,.7-.55V121a.63.63,0,0,0-.55-.62l-5.8-.69.69-5.8a.17.17,0,0,0,0-.07.63.63,0,0,0-1.25-.08Z" transform="translate(-121.8 -46.61)"/></svg>