<svg id="Layer_1" data-name="Layer 1" xmlns="http://www.w3.org/2000/svg" viewBox="0 0 92.77 100"><defs><style>.cls-1{fill:#a6bfe0;}</style></defs><path class="cls-1" d="M180.79,129.36A42.42,42.42,0,0,1,166.51,47l-7.18,13.93a1.18,1.18,0,0,0,1.21,1.93,1,1,0,0,0,.56-.35l9.71-17.79a1.19,1.19,0,0,0-.54-1.93L151.08,37a1.19,1.19,0,1,0-.69,2.28l14.1,4.28a46.39,46.39,0,0,0,16.3,89.79l1.68,0-.14-4Z" transform="translate(-134.46 -36.93)"/><path class="cls-1" d="M226.09,76.71a46.15,46.15,0,0,0-45-36.17v4a42.42,42.42,0,0,1,14.2,82.32l7.09-13a1.19,1.19,0,0,0-.09-1.68,1.17,1.17,0,0,0-1.11-.26,1.27,1.27,0,0,0-.57.35l-9.7,16.91a1.18,1.18,0,0,0-.26,1.11,1.2,1.2,0,0,0,.8.82l19.19,5.82a1.19,1.19,0,1,0,.69-2.27l-14.11-4.28A46.46,46.46,0,0,0,226.09,76.71Z" transform="translate(-134.46 -36.93)"/><path class="cls-1" d="M177.91,111.44a1.93,1.93,0,0,1-1.49-.72L159.65,89.59a1.9,1.9,0,0,1,3-2.36l15,18.84,21.73-41.51a1.9,1.9,0,1,1,3.36,1.76l-23.08,44.1a1.89,1.89,0,0,1-1.5,1Z" transform="translate(-134.46 -36.93)"/></svg>