<svg id="Layer_1" data-name="Layer 1" xmlns="http://www.w3.org/2000/svg" viewBox="0 0 114.45 100"><defs><style>.cls-1{fill:#a6bfe0;}.cls-2{fill:none;}</style></defs><path class="cls-1" d="M120.68,131.74a3.78,3.78,0,0,0-.06-.47s0-.08,0-.11,0-.3-.08-.45-.06-.24-.09-.35-.05-.19-.07-.28-.14-.41-.22-.61a6.39,6.39,0,0,0-.26-.6,8.38,8.38,0,0,0-.67-1.15l-.17-.24-.17-.22a14.48,14.48,0,0,0-.36,4v0a10.67,10.67,0,0,0,.12,1.09v.15a14.47,14.47,0,0,0,1.15,4,1.09,1.09,0,0,0,.06-.11s0,0,0,0a.41.41,0,0,0,0-.08.12.12,0,0,0,0-.08.61.61,0,0,0,0-.12l.15-.35a.49.49,0,0,0,0-.11c0-.11.08-.22.12-.32l.06-.14s0,0,0,0,.06-.2.08-.31,0-.21.08-.32,0-.14,0-.21,0-.11,0-.17,0-.16,0-.25,0-.12,0-.17a.91.91,0,0,0,0-.17l0-.28a7.42,7.42,0,0,0,0-.82v-.25C120.71,132.05,120.7,131.9,120.68,131.74Zm36.39-11.11a9.87,9.87,0,0,0-1-.94h0a8.12,8.12,0,0,0-.74-.52,8.61,8.61,0,0,0-4.58-1.32,8.75,8.75,0,0,0-5.15,1.66l-8.86-9.64a13.15,13.15,0,0,0,1.54-1.91h-5.58l-.15.11a10.75,10.75,0,0,1-5.78,2.27l-1,2.1-1,2.06c.37,0,.75,0,1.13,0a14.82,14.82,0,0,0,9.28-3.21L144,121a8.76,8.76,0,0,0,.23,11.45,8.6,8.6,0,0,0,6.37,2.77,8.72,8.72,0,0,0,5-1.58,4.15,4.15,0,0,0,.52-.39c.12-.09.21-.18.32-.27l.34-.34a7.14,7.14,0,0,0,.91-1.08h0a8.29,8.29,0,0,0,.71-1.17c.07-.14.13-.28.19-.42a6.77,6.77,0,0,0,.44-1.29,7.09,7.09,0,0,0,.24-1.3A8.57,8.57,0,0,0,157.07,120.63Zm-3.42,9.25A4.53,4.53,0,0,1,150.6,131a4.47,4.47,0,0,1-3.31-1.42,4.58,4.58,0,0,1-.11-5.94l.35-.42.5-.35a4.59,4.59,0,0,1,2.71-.88,4.4,4.4,0,0,1,3.26,1.43A4.52,4.52,0,0,1,153.65,129.88Zm36.16-7.25-20.42-42a16,16,0,0,1-1.59-7V48.58h4.68A1.56,1.56,0,0,0,174,47a1.62,1.62,0,0,0-1.74-1.57H138.11a1.57,1.57,0,1,0,0,3.13h4.69V73.67a16,16,0,0,1-1.61,7l-3.55,7.3L137,89.2l-1,2.12-1,2.05a10.26,10.26,0,0,1,1.52,3.7l1.32-2.63h0L139.05,92h0l.7-1.4,4.57-9.16a15.27,15.27,0,0,0,1.61-6.79V48.58h18.74V74.65a15.25,15.25,0,0,0,1.59,6.79L179.5,108H139.84a17.29,17.29,0,0,1-1.33,1.88l7.3,8a10.19,10.19,0,0,1,4.93-1.27,10,10,0,1,1-7.48,16.8,10.18,10.18,0,0,1-1-12.27l-7.32-8a16.28,16.28,0,0,1-9.1,2.76,14.34,14.34,0,0,1-1.75-.09l-3.34,6.87a15.43,15.43,0,0,0-1.48,3.1l.11.1a10,10,0,0,1,2.66,6.75,9.82,9.82,0,0,1-1.58,5.34,14.77,14.77,0,0,0,12.94,7.52h43.76a14.92,14.92,0,0,0,12.63-22.82Z" transform="translate(-77.64 -45.45)"/><path class="cls-1" d="M157.07,120.63a9.87,9.87,0,0,0-1-.94h0a8.12,8.12,0,0,0-.74-.52,8.61,8.61,0,0,0-4.58-1.32,8.75,8.75,0,0,0-5.15,1.66l-8.86-9.64a13.15,13.15,0,0,0,1.54-1.91,15.25,15.25,0,0,0,2.41-11.46,13.42,13.42,0,0,0-.47-1.84c-.1-.31-.21-.61-.33-.91a13.8,13.8,0,0,0-.83-1.74h0c0-.06-.08-.13-.12-.2l-.12-.21c-.08-.14-.17-.27-.26-.41l-.55-.8-.41-.51c-.18-.23-.37-.45-.57-.67l-.06-.06a15.44,15.44,0,0,0-1.43-1.38h0c-.23-.2-.47-.38-.71-.56s-.61-.44-.93-.64a14.4,14.4,0,0,0-1.37-.77,15.08,15.08,0,0,0-6.71-1.56,14.63,14.63,0,0,0-2,.13L121,70.49a8.65,8.65,0,0,0,3.07-1.82l.33-.32c.22-.23.42-.46.61-.7s.19-.25.28-.37a7.39,7.39,0,0,0,.47-.76,8.65,8.65,0,0,0,.67-6.94c0-.13-.09-.25-.13-.38a7,7,0,0,0-.33-.74,3,3,0,0,0-.18-.36c-.08-.15-.17-.29-.26-.43s-.28-.42-.44-.63a4.12,4.12,0,0,0-.33-.4c-.06-.07-.11-.14-.17-.2a2.73,2.73,0,0,0-.34-.34,8.65,8.65,0,1,0-6,14.85c.22,0,.45,0,.67,0h0l2.84,13.88h0a15.08,15.08,0,0,0-6.24,3.5,14.48,14.48,0,0,0-3.12,4.11,15.86,15.86,0,0,0-.82,1.89c-.11.31-.21.64-.3,1L95,92a9.69,9.69,0,0,0-.22-2.15,1.18,1.18,0,0,0-.08-.31,3.12,3.12,0,0,0-.14-.5,1.52,1.52,0,0,0-.09-.28c-.06-.18-.13-.35-.2-.52s-.19-.43-.3-.63a8.87,8.87,0,0,0-1.32-1.88,8.67,8.67,0,0,0-12.23-.53l-.33.33c-.11.1-.2.21-.3.31s-.36.44-.54.67h0L79,87a7.51,7.51,0,0,0-.39.68c-.11.23-.22.47-.32.71s-.1.26-.14.38l-.14.4-.1.4a0,0,0,0,1,0,0c0,.16-.07.33-.11.5A8.54,8.54,0,0,0,78,93.82a7,7,0,0,0,.23.74,8.53,8.53,0,0,0,1.75,2.86A8.66,8.66,0,0,0,92.17,98a5.55,5.55,0,0,0,.42-.42c.14-.15.28-.3.4-.45a10.56,10.56,0,0,0,.69-1,8.87,8.87,0,0,0,.53-1,9.44,9.44,0,0,0,.4-1.08l16.25,3.45h0a14.77,14.77,0,0,0-.09,3.64c0,.21,0,.42.08.63s.1.63.17,1,.16.67.26,1,.11.38.17.56A15.24,15.24,0,0,0,119,112.9l-1.5,3.55-.42,1-1.89,4.49-.31.72-.29.71c-.08.18-.15.34-.19.45l-.13.28s-.17-.06-.45-.08h-.07c-.92-.05-2.77,0-3,0h0a8.38,8.38,0,0,0-3.19,1.32,9.17,9.17,0,0,0-3.81,5.7,8.61,8.61,0,0,0,6.75,10l.3,0a.25.25,0,0,0,.12,0l.18,0a2,2,0,0,0,.34,0c.22,0,.46,0,.7,0h0l.59,0h.07a4.25,4.25,0,0,0,.61-.08.83.83,0,0,0,.22,0h0a2.7,2.7,0,0,0,.39-.08c.26-.06.51-.13.76-.21a8.79,8.79,0,0,0,4.34-3.2.47.47,0,0,1,.09-.12l0-.06.28-.44.22-.39h0a1.09,1.09,0,0,0,.06-.11,0,0,0,0,1,0,0h0v0l0,0a.2.2,0,0,1,0-.08,1,1,0,0,1,0-.12l.15-.35a.49.49,0,0,0,0-.11c0-.11.08-.22.12-.32l.06-.14s0,0,0,0,.06-.2.08-.31,0-.21.08-.32,0-.14,0-.21,0-.11,0-.17,0-.16,0-.25,0-.12,0-.17a.91.91,0,0,0,0-.17l0-.28a7.42,7.42,0,0,0,0-.82v-.25c0-.16,0-.31,0-.47a3.78,3.78,0,0,0-.06-.47s0-.08,0-.11,0-.3-.08-.45-.06-.24-.09-.35-.05-.19-.07-.28-.14-.41-.22-.61a6.39,6.39,0,0,0-.26-.6,8.38,8.38,0,0,0-.67-1.15l-.17-.24-.17-.22h0l-.44-.51-.26-.27-.25-.26-.26-.25a5.73,5.73,0,0,0-1.41-1.06l4.69-11.16a15.47,15.47,0,0,0,3.79.77c.37,0,.75,0,1.13,0a14.82,14.82,0,0,0,9.28-3.21L144,121a8.76,8.76,0,0,0,.23,11.45,8.6,8.6,0,0,0,6.37,2.77,8.72,8.72,0,0,0,5-1.58,4.15,4.15,0,0,0,.52-.39c.12-.09.21-.18.32-.27l.34-.34a7.14,7.14,0,0,0,.91-1.08h0a8.29,8.29,0,0,0,.71-1.17c.07-.14.13-.28.19-.42a6.77,6.77,0,0,0,.44-1.29,7.09,7.09,0,0,0,.24-1.3A8.57,8.57,0,0,0,157.07,120.63ZM90.62,92.86a4.4,4.4,0,0,1-1.28,2,4.49,4.49,0,1,1-6.07-6.61,4.4,4.4,0,0,1,3-1.18,4.45,4.45,0,0,1,3.31,1.44A5.17,5.17,0,0,1,90.88,92Zm24.53,43a4.49,4.49,0,0,1-6.05-6.64,4.31,4.31,0,0,1,3-1.15,5.76,5.76,0,0,1,1.22.13l.34.07.59.32a5.23,5.23,0,0,1,1.06,1A4.4,4.4,0,0,1,115.15,135.84Zm4-69.12-.59,0-.36,0a4.49,4.49,0,0,1-3.31-1.45,4.53,4.53,0,0,1,.28-6.35,4.49,4.49,0,0,1,6.08,6.62,4.57,4.57,0,0,1-1.58.94ZM134.58,109a12.93,12.93,0,0,1-8.85,3.49h-.29l-.52,0c-.26,0-.53,0-.78-.08a13.38,13.38,0,0,1-1.58-.31,3,3,0,0,1-.45-.13c-.14,0-.25-.08-.38-.12a8.21,8.21,0,0,1-.78-.29l-.27-.11-.6-.28c-.2-.11-.41-.21-.61-.33s-.67-.4-1-.63h0l-.36-.27a9.75,9.75,0,0,1-1.3-1.12c-.19-.17-.38-.36-.56-.55A13,13,0,0,1,135.38,90.6c.09.13.22.24.31.36s.2.24.3.36.38.52.57.77.2.31.32.47.22.38.31.56c.24.44.45.87.64,1.31h0c.08.2.17.39.24.6s.12.33.17.5l.11.39a2.19,2.19,0,0,1,.11.4l.09.43c0,.19.08.37.11.56a5.46,5.46,0,0,1,.08.68,1.33,1.33,0,0,1,0,.28,9.94,9.94,0,0,1,0,2c0,.22,0,.44-.06.66l-.06.52c0,.26-.11.53-.17.78a7.27,7.27,0,0,1-.2.77,4.83,4.83,0,0,1-.16.5,6.68,6.68,0,0,1-.35.9,3,3,0,0,1-.16.37c-.06.12-.11.25-.18.37s-.24.43-.34.65a2.14,2.14,0,0,1-.13.19,6.51,6.51,0,0,1-.38.59,8.49,8.49,0,0,1-.59.83,5.72,5.72,0,0,1-.4.46s0,0,0,0A13.21,13.21,0,0,1,134.58,109Zm19.07,20.93A4.53,4.53,0,0,1,150.6,131a4.47,4.47,0,0,1-3.31-1.42,4.58,4.58,0,0,1-.11-5.94l.35-.42.5-.35a4.59,4.59,0,0,1,2.71-.88,4.4,4.4,0,0,1,3.26,1.43A4.52,4.52,0,0,1,153.65,129.88Z" transform="translate(-77.64 -45.45)"/><path class="cls-2" d="M116.1,140.2c-.18.09-.35.18-.54.26l-.37.15-.37.12-.35.12h0a2.59,2.59,0,0,1-.4.09,2.7,2.7,0,0,1-.39.08h0a.83.83,0,0,1-.22,0,4.25,4.25,0,0,1-.61.08h-.07l-.59,0h0c-.24,0-.48,0-.7,0a2,2,0,0,1-.34,0l-.18,0a.25.25,0,0,1-.12,0l-.3,0-.39-.08c-.18-.06-.37-.1-.53-.16a6.94,6.94,0,0,1-1.49-.63,5.33,5.33,0,0,1-.56-.32l-.28-.19-.34-.24c-.14-.11-.29-.23-.42-.35a7,7,0,0,1-.68-.65l-.27-.32a5.21,5.21,0,0,1-.5-.66,9.45,9.45,0,0,1-.62-1.06c-.1-.2-.19-.41-.27-.62a8.69,8.69,0,0,1-.22-5.8c.09-.28.2-.55.31-.82a7.46,7.46,0,0,1,.4-.8h0l.29-.48a6.61,6.61,0,0,1,.69-.91l.39-.43c.11-.12.22-.22.34-.33a6.42,6.42,0,0,1,.64-.53,5.88,5.88,0,0,1,.51-.36,5.48,5.48,0,0,1,.52-.31c.11-.07.24-.13.36-.19a3.54,3.54,0,0,1,.53-.23h0a3.75,3.75,0,0,1,.53-.19l.14,0h.06a.31.31,0,0,1,.12-.05l.4-.1.45-.08.11,0c.32,0,.65-.09,1-.11h.49a7.09,7.09,0,0,1,1,.06,4.34,4.34,0,0,1,.52.07h.07a3.58,3.58,0,0,1,.45.09h0l.13-.28.19-.45.29-.71.31-.72,1.89-4.49.42-1,1.5-3.55a15.24,15.24,0,0,1-7.49-8.64c-.06-.18-.12-.37-.17-.56s-.19-.67-.26-1-.12-.63-.17-1l-.08-.63a13.44,13.44,0,0,1,.08-3.64L94.61,94h0a9.35,9.35,0,0,1-.39,1.08,10.83,10.83,0,0,1-.53,1,10.56,10.56,0,0,1-.69,1c-.12.15-.26.3-.4.45a5.55,5.55,0,0,1-.42.42,8.66,8.66,0,0,1-12.24-.53,8.53,8.53,0,0,1-1.75-2.86,7,7,0,0,1-.23-.74,8.7,8.7,0,0,1-.23-1.13A8.41,8.41,0,0,1,77.78,90c0-.17.07-.34.11-.5a0,0,0,0,0,0,0l.11-.4.13-.4c0-.12.09-.25.14-.38s.21-.48.32-.71A7.51,7.51,0,0,1,79,87l.3-.44h0c.17-.23.35-.45.54-.67s.19-.21.3-.31l.33-.33a8.67,8.67,0,0,1,12.23.53A8.87,8.87,0,0,1,94,87.6c.11.2.2.41.3.63s.14.34.2.52a1.52,1.52,0,0,1,.09.28,3.12,3.12,0,0,1,.14.5,1.18,1.18,0,0,1,.08.31A9.69,9.69,0,0,1,95,92l16.2,3.28c.09-.33.19-.66.3-1a15.8,15.8,0,0,1,.81-1.89,14.7,14.7,0,0,1,3.13-4.11,15.08,15.08,0,0,1,6.24-3.5l-2.85-13.88c-.22,0-.45,0-.67,0a8.66,8.66,0,1,1,6-14.85l.33.34.18.2a4.12,4.12,0,0,1,.33.4c.16.21.31.42.44.63s.18.28.26.43a3,3,0,0,1,.18.36c.12.24.23.49.33.74s.09.25.13.38a8.65,8.65,0,0,1-.67,6.94,7.39,7.39,0,0,1-.47.76c-.09.12-.18.25-.28.37s-.39.47-.61.7l-.33.32A8.65,8.65,0,0,1,121,70.49h0l2.84,13.87a14.63,14.63,0,0,1,2-.13,15.08,15.08,0,0,1,6.71,1.56,14.4,14.4,0,0,1,1.37.77c.32.2.63.41.93.64s.48.36.71.56h0A15.44,15.44,0,0,1,137,89.14l.06.06c.2.22.39.44.57.67l.41.51.55.8c.09.14.18.27.26.41l.12.21a1.28,1.28,0,0,0,.11.2,0,0,0,0,0,0,0,17.27,17.27,0,0,1,.83,1.74c.12.3.23.6.33.91a16.53,16.53,0,0,1,.47,1.84A15.25,15.25,0,0,1,138.27,108a13.85,13.85,0,0,1-1.54,1.91l8.86,9.64a8.75,8.75,0,0,1,5.15-1.66,8.61,8.61,0,0,1,4.58,1.32,8.12,8.12,0,0,1,.74.52h0a9.87,9.87,0,0,1,1,.94,8.57,8.57,0,0,1,2.23,6.72,7.09,7.09,0,0,1-.24,1.3,6.77,6.77,0,0,1-.44,1.29c-.06.14-.12.28-.19.42a7.45,7.45,0,0,1-.71,1.17h0a10.4,10.4,0,0,1-.91,1.08l-.34.34c-.11.09-.2.18-.32.27a4.15,4.15,0,0,1-.52.39,8.72,8.72,0,0,1-5,1.58,8.6,8.6,0,0,1-6.37-2.77A8.76,8.76,0,0,1,144,121l-8.86-9.65a14.82,14.82,0,0,1-9.28,3.21c-.38,0-.76,0-1.13,0a15.47,15.47,0,0,1-3.79-.77l-4.69,11.16a5.73,5.73,0,0,1,1.41,1.06l.26.25.25.26c.08.1.17.18.25.27l.44.51h0c.11.15.23.3.33.46a8.38,8.38,0,0,1,.67,1.15,6.46,6.46,0,0,1,.27.6c.08.2.15.41.21.61s.05.19.08.28.06.22.09.35.06.3.08.45,0,.08,0,.11a3.78,3.78,0,0,1,.06.47,2.56,2.56,0,0,1,0,.47,6.36,6.36,0,0,1,0,1.07l0,.28a.91.91,0,0,1,0,.17c0,.05,0,.12,0,.17s0,.18,0,.25,0,.12,0,.17,0,.14,0,.21-.12.43-.18.63v0a.58.58,0,0,0,0,.14c0,.1-.07.21-.12.32a.49.49,0,0,1,0,.11l-.15.35a1,1,0,0,0,0,.12.2.2,0,0,0,0,.08l0,0a.06.06,0,0,0,0,0,0,0,0,0,0,0,0,1.09,1.09,0,0,1-.06.11h0c-.07.13-.14.26-.22.39a2.54,2.54,0,0,1-.16.28l-.12.16,0,.06a.47.47,0,0,0-.09.12l0,0a3.92,3.92,0,0,1-.25.32h0a3.27,3.27,0,0,1-.3.35,1.07,1.07,0,0,1-.14.16,1.14,1.14,0,0,1-.15.17l-.31.31h0l0,0h0v0l-.23.19h0a1.53,1.53,0,0,1-.16.13,1.27,1.27,0,0,1-.17.14h0l0,0h0l-.28.21h0l0,0a3.28,3.28,0,0,1-.31.2h0l-.53.3m-1.64.65h0m3.46-1.9h0l0,0m0,0h0l0,0h0v0l-.23.19h0m-1,.74-.53.3.18-.09.23-.13s.09,0,.12-.07h0Zm-1.07.56.31-.14.23-.12C115.92,140.29,115.75,140.38,115.56,140.46Zm1.41-.78a3.28,3.28,0,0,1-.31.2,2.59,2.59,0,0,0,.31-.19l0,0Zm.36-.25,0,0h0l-.28.21.29-.2,0,0Zm1.83-1.9,0,0,0,0,.08-.12A.47.47,0,0,0,119.16,137.53ZM138,88.24c-.1-.11-.19-.2-.31-.31L137,89.2c.2.22.39.44.57.67l.41.51.55.8c.09.14.18.27.26.41l.12.21c0,.07.09.14.12.2l.7-1.4A16.92,16.92,0,0,0,138,88.24Zm-18.09,48.1a.06.06,0,0,1,0,0,0,0,0,0,0,0,0s0,0,0,0a.41.41,0,0,0,0-.08Zm.49-1.18v0s0,0,0,0,.06-.2.08-.31Z" transform="translate(-77.64 -45.45)"/><path class="cls-1" d="M157.07,120.63a9.87,9.87,0,0,0-1-.94h0a8.12,8.12,0,0,0-.74-.52,8.61,8.61,0,0,0-4.58-1.32,8.75,8.75,0,0,0-5.15,1.66l-8.86-9.64a13.15,13.15,0,0,0,1.54-1.91,15.25,15.25,0,0,0,2.41-11.46,13.42,13.42,0,0,0-.47-1.84c-.1-.31-.21-.61-.33-.91a13.8,13.8,0,0,0-.83-1.74h0c0-.06-.08-.13-.12-.2l-.12-.21c-.08-.14-.17-.27-.26-.41l-.55-.8-.41-.51c-.18-.23-.37-.45-.57-.67l-.06-.06a15.44,15.44,0,0,0-1.43-1.38h0c-.23-.2-.47-.38-.71-.56s-.61-.44-.93-.64a14.4,14.4,0,0,0-1.37-.77,15.08,15.08,0,0,0-6.71-1.56,14.63,14.63,0,0,0-2,.13L121,70.49a8.65,8.65,0,0,0,3.07-1.82l.33-.32c.22-.23.42-.46.61-.7s.19-.25.28-.37a7.39,7.39,0,0,0,.47-.76,8.65,8.65,0,0,0,.67-6.94c0-.13-.09-.25-.13-.38a7,7,0,0,0-.33-.74,3,3,0,0,0-.18-.36c-.08-.15-.17-.29-.26-.43s-.28-.42-.44-.63a4.12,4.12,0,0,0-.33-.4c-.06-.07-.11-.14-.17-.2a2.73,2.73,0,0,0-.34-.34,8.65,8.65,0,1,0-6,14.85c.22,0,.45,0,.67,0h0l2.84,13.88h0a15.08,15.08,0,0,0-6.24,3.5,14.48,14.48,0,0,0-3.12,4.11,15.86,15.86,0,0,0-.82,1.89c-.11.31-.21.64-.3,1L95,92a9.69,9.69,0,0,0-.22-2.15,1.18,1.18,0,0,0-.08-.31,3.12,3.12,0,0,0-.14-.5,1.52,1.52,0,0,0-.09-.28c-.06-.18-.13-.35-.2-.52s-.19-.43-.3-.63a8.87,8.87,0,0,0-1.32-1.88,8.67,8.67,0,0,0-12.23-.53l-.33.33c-.11.1-.2.21-.3.31s-.36.44-.54.67h0L79,87a7.51,7.51,0,0,0-.39.68c-.11.23-.22.47-.32.71s-.1.26-.14.38l-.14.4-.1.4a0,0,0,0,1,0,0c0,.16-.07.33-.11.5A8.54,8.54,0,0,0,78,93.82a7,7,0,0,0,.23.74,8.53,8.53,0,0,0,1.75,2.86A8.66,8.66,0,0,0,92.17,98a5.55,5.55,0,0,0,.42-.42c.14-.15.28-.3.4-.45a10.56,10.56,0,0,0,.69-1,8.87,8.87,0,0,0,.53-1,9.44,9.44,0,0,0,.4-1.08l16.25,3.45h0a14.77,14.77,0,0,0-.09,3.64c0,.21,0,.42.08.63s.1.63.17,1,.16.67.26,1,.11.38.17.56A15.24,15.24,0,0,0,119,112.9l-1.5,3.55-.42,1-1.89,4.49-.31.72-.29.71c-.08.18-.15.34-.19.45l-.13.28h0a3.58,3.58,0,0,0-.45-.09h-.07a4.34,4.34,0,0,0-.52-.07,7.09,7.09,0,0,0-1-.06h-.26a10.51,10.51,0,0,0-1.09.1l-.09,0h0l-.13,0-.45.08-.44.13-.08,0h-.06l-.14,0-.53.19h0l-.53.23c-.12.06-.25.12-.36.19a5.48,5.48,0,0,0-.52.31,5.88,5.88,0,0,0-.51.36,6.42,6.42,0,0,0-.64.53c-.12.11-.23.21-.34.33l-.39.43a8.7,8.7,0,0,0-.69.91l-.29.48h0c-.14.26-.27.53-.4.8s-.21.54-.31.82a8.69,8.69,0,0,0,.22,5.8c.08.21.17.42.27.62a9.45,9.45,0,0,0,.62,1.06,6.36,6.36,0,0,0,.5.66l.27.32a7,7,0,0,0,.68.65c.13.12.28.24.42.35l.34.24.28.19.56.32a6.94,6.94,0,0,0,1.49.63c.16.06.35.1.53.16l.39.08.3,0,.3,0a2,2,0,0,0,.34,0c.22,0,.46,0,.7,0h0l.59,0h.07a4.25,4.25,0,0,0,.61-.08.83.83,0,0,0,.22,0h0a2.7,2.7,0,0,0,.39-.08,2.59,2.59,0,0,0,.4-.09h0l.35-.12.37-.12.37-.15.31-.14.23-.12.18-.09.23-.13s.09,0,.12-.07h0a2.59,2.59,0,0,0,.31-.19l0,0h0l.29-.2,0,0a1.27,1.27,0,0,0,.17-.14,1.53,1.53,0,0,0,.16-.13h0l.23-.19,0,0h0l0,0h0l.31-.31a1.14,1.14,0,0,0,.15-.17.75.75,0,0,0,.15-.16,3.17,3.17,0,0,0,.29-.35h0a3.92,3.92,0,0,0,.25-.32l0,0,.08-.12,0-.06.12-.16a2.54,2.54,0,0,0,.16-.28l.22-.39h0a1.09,1.09,0,0,0,.06-.11s0,0,0,0a.41.41,0,0,0,0-.08.12.12,0,0,0,0-.08.61.61,0,0,0,0-.12l.15-.35a.49.49,0,0,0,0-.11c0-.11.08-.22.12-.32l.06-.14s0,0,0,0,.06-.2.08-.31,0-.21.08-.32,0-.14,0-.21,0-.11,0-.17,0-.16,0-.25,0-.12,0-.17a.91.91,0,0,0,0-.17l0-.28a7.42,7.42,0,0,0,0-.82v-.25c0-.16,0-.31,0-.47a3.78,3.78,0,0,0-.06-.47s0-.08,0-.11,0-.3-.08-.45-.06-.24-.09-.35-.05-.19-.07-.28-.14-.41-.22-.61a6.39,6.39,0,0,0-.26-.6,8.38,8.38,0,0,0-.67-1.15l-.17-.24-.17-.22h0l-.44-.51-.26-.27-.25-.26-.26-.25a5.73,5.73,0,0,0-1.41-1.06l4.69-11.16a15.47,15.47,0,0,0,3.79.77c.37,0,.75,0,1.13,0a14.82,14.82,0,0,0,9.28-3.21L144,121a8.76,8.76,0,0,0,.23,11.45,8.6,8.6,0,0,0,6.37,2.77,8.72,8.72,0,0,0,5-1.58,4.15,4.15,0,0,0,.52-.39c.12-.09.21-.18.32-.27l.34-.34a7.14,7.14,0,0,0,.91-1.08h0a8.29,8.29,0,0,0,.71-1.17c.07-.14.13-.28.19-.42a6.77,6.77,0,0,0,.44-1.29,7.09,7.09,0,0,0,.24-1.3A8.57,8.57,0,0,0,157.07,120.63ZM90.62,92.86a4.4,4.4,0,0,1-1.28,2,4.49,4.49,0,1,1-6.07-6.61,4.4,4.4,0,0,1,3-1.18,4.45,4.45,0,0,1,3.31,1.44A5.17,5.17,0,0,1,90.88,92Zm24.53,43a4.49,4.49,0,0,1-6.05-6.64,4.31,4.31,0,0,1,3-1.15,5.76,5.76,0,0,1,1.22.13l.34.07.59.32a5.23,5.23,0,0,1,1.06,1A4.4,4.4,0,0,1,115.15,135.84Zm18-28.26-.47.38-.15.11a10.75,10.75,0,0,1-5.78,2.27l-.9,0a11.11,11.11,0,0,1-3.58-.59l-.77-.26-.68-.34a10.67,10.67,0,0,1-3.11-2.37,10.48,10.48,0,0,1-2.74-8.7l.28-1.78a10.57,10.57,0,0,1,3-5,11,11,0,0,1,4.53-2.57l.83-.22.71-.09a10,10,0,0,1,1.44-.1A10.87,10.87,0,0,1,133.9,92a11,11,0,0,1,2.61,5.12,11.11,11.11,0,0,1-2.8,9.93Zm-14-40.86-.59,0-.36,0a4.49,4.49,0,0,1-3.31-1.45,4.53,4.53,0,0,1,.28-6.35,4.49,4.49,0,0,1,6.08,6.62,4.57,4.57,0,0,1-1.58.94Zm34.51,63.16A4.53,4.53,0,0,1,150.6,131a4.47,4.47,0,0,1-3.31-1.42,4.58,4.58,0,0,1-.11-5.94l.35-.42.5-.35a4.59,4.59,0,0,1,2.71-.88,4.4,4.4,0,0,1,3.26,1.43A4.52,4.52,0,0,1,153.65,129.88Z" transform="translate(-77.64 -45.45)"/></svg>