<svg id="Layer_1" data-name="Layer 1" xmlns="http://www.w3.org/2000/svg" viewBox="0 0 89.46 100"><defs><style>.cls-1{fill:#a6bfe0;}</style></defs><path class="cls-1" d="M189.89,85c-20.34-.86-31.53,6.05-37,15.4a26.94,26.94,0,0,0-1.75,3.53,38.22,38.22,0,0,0-2.37,18.71,43.89,43.89,0,0,0,2.06,9.43,29.86,29.86,0,0,0,1.18,3c.19.46.4.9.61,1.32h0a0,0,0,0,1,0,0c27.47,3.81,44.91-13.67,44.71-40.72C197.52,91,194.93,85.64,189.89,85ZM175.38,113.7a3.09,3.09,0,0,1-2.08,1.46c-6.64,1.39-16,7.8-17.48,18a1.56,1.56,0,0,1-2.33,1,1.36,1.36,0,0,1-.38-.24,1.43,1.43,0,0,1-.43-1.44q0-.39.12-.78a21.74,21.74,0,0,1,3.44-8.4C163.31,112.85,177.61,109.67,175.38,113.7Z" transform="translate(-107.92 -36.93)"/><path class="cls-1" d="M152.8,131.74a21.74,21.74,0,0,1,3.44-8.4c1.07-7,1-15.65-3.33-23-4.91-8.33-15.27-15-35.61-15.5a3.37,3.37,0,0,0-.5,0,9.15,9.15,0,0,0-1.39.12c-.29,0-.59.12-.91.2s-.44.14-.67.22-.46.18-.68.29l-.35.18a5.64,5.64,0,0,0-.7.42,7.84,7.84,0,0,0-1.68,1.52,8.66,8.66,0,0,0-.6.82,9.57,9.57,0,0,0-.62,1.1c-.07.13-.13.27-.19.4-.16.38-.31.79-.44,1.21a12.21,12.21,0,0,0-.36,1.36c-.1.48-.18,1-.25,1.54,0,0-1.3,19.94,10.81,32.54q.74.75,1.53,1.47c.53.48,1.08.95,1.66,1.4s1.18.89,1.8,1.31,1.28.81,1.95,1.2c.34.19.68.38,1,.56.7.37,1.42.7,2.18,1a37.51,37.51,0,0,0,3.58,1.3c.83.25,1.69.48,2.59.68a47.22,47.22,0,0,0,10.49,1.11,65.21,65.21,0,0,0,7-.4v0h0c.08-.16.41-.94.85-2.18a1.36,1.36,0,0,1-.38-.24,1.43,1.43,0,0,1-.43-1.44Q152.73,132.13,152.8,131.74Zm-7.22,1.86c-10.6,0-18.92-3.13-24.73-9.31-10.37-11-9.76-28.5-9.7-29.79C111.86,88.88,115,88,116.8,88h.42c16.28.44,27.23,4.92,32.55,13.32a22.22,22.22,0,0,1,1.39,2.52c3.88,8.35,2.38,18.34.7,24.74-.34,1.29-.69,2.44-1,3.4q-.25.78-.48,1.38l-.46,0C148.42,133.54,147,133.6,145.58,133.6Z" transform="translate(-107.92 -36.93)"/><path class="cls-1" d="M153.11,134a1.56,1.56,0,0,1-1.08,1.1.42.42,0,0,1-.15,0,1.15,1.15,0,0,1-.31,0,1.62,1.62,0,0,1-1.58-1.29c0-.14-.05-.27-.08-.41A25.36,25.36,0,0,0,132,114.25a1.6,1.6,0,0,1,.74-3.11,29.05,29.05,0,0,1,16.06,11.46,27,27,0,0,1,3.07,6,27.6,27.6,0,0,1,.94,3.11q-.08.39-.12.78A1.43,1.43,0,0,0,153.11,134Z" transform="translate(-107.92 -36.93)"/><path class="cls-1" d="M185.2,49.74a13.45,13.45,0,0,0-11.35-5.92,16.8,16.8,0,0,0-8.35,2.24l-2.91,1.76-1.66-3c-2.12-3.8-7.1-7.91-13-7.91A13.79,13.79,0,0,0,142,38.31a15,15,0,0,0-7.87,9,15.7,15.7,0,0,0,1.15,12.22l14.78,26.49a3.22,3.22,0,0,0,2,1.54,2.85,2.85,0,0,0,.82.11,3.13,3.13,0,0,0,1.65-.47l26-15.7a15.61,15.61,0,0,0,7.05-10A14.91,14.91,0,0,0,185.2,49.74ZM178.88,68.8l-26,15.7L138.06,58a12.18,12.18,0,0,1,5.31-16.79,10.46,10.46,0,0,1,4.55-1.07c5,0,8.84,3.8,10.21,6.27l3.29,5.85,5.74-3.46A13.51,13.51,0,0,1,173.85,47a10.21,10.21,0,0,1,8.72,4.55A12.16,12.16,0,0,1,178.88,68.8Z" transform="translate(-107.92 -36.93)"/></svg>