<svg id="Layer_1" data-name="Layer 1" xmlns="http://www.w3.org/2000/svg" viewBox="0 0 72.24 114"><defs><style>.cls-1{fill:#a6bfe0;}</style></defs><path class="cls-1" d="M158.33,117.64,147.5,54.16l2.12-.36A1.6,1.6,0,0,0,150.93,52a1.62,1.62,0,0,0-1.86-1.31L120.64,55.5a1.6,1.6,0,0,0,.54,3.16l2.11-.36,10.83,63.47a12.28,12.28,0,0,0,24.21-4.13ZM129,76.34l-.3-1.8,7.3-1.25a1.1,1.1,0,1,0-.37-2.17l-7.3,1.24-.62-3.58,7.3-1.25a1.1,1.1,0,0,0,.91-1.27,1.11,1.11,0,0,0-1.27-.91l-7.31,1.26L125.89,58l19-3.24,3.14,18.38Zm-.28,4.87a1.11,1.11,0,0,1,.91-1.27l7.29-1.24a1.1,1.1,0,1,1,.38,2.17L130,82.12A1.1,1.1,0,0,1,128.74,81.21Zm9.56,5.42L131,87.88a1.1,1.1,0,0,1-1.27-.9,1.08,1.08,0,0,1,.9-1.27l7.29-1.25a1.1,1.1,0,1,1,.38,2.17Z" transform="translate(-119.3 -17.99)"/><path class="cls-1" d="M168.79,18a2.9,2.9,0,1,0,2.91,2.9A2.9,2.9,0,0,0,168.79,18Zm0,4.7a1.8,1.8,0,1,1,1.81-1.8A1.8,1.8,0,0,1,168.79,22.69Z" transform="translate(-119.3 -17.99)"/><path class="cls-1" d="M168.79,33.23a2.49,2.49,0,1,0,2.49,2.49A2.48,2.48,0,0,0,168.79,33.23Zm0,3.87a1.38,1.38,0,1,1,1.39-1.38A1.38,1.38,0,0,1,168.79,37.1Z" transform="translate(-119.3 -17.99)"/><circle class="cls-1" cx="64.74" cy="19.89" r="3.04"/><polygon class="cls-1" points="62.83 9.23 60.53 8.53 62.66 7.4 62.27 6.67 60.15 7.79 60.85 5.5 60.06 5.26 59.36 7.55 58.23 5.43 57.5 5.82 58.63 7.94 56.33 7.24 56.09 8.03 58.38 8.73 56.26 9.86 56.65 10.59 58.77 9.46 58.07 11.76 58.86 12 59.56 9.7 60.69 11.82 61.42 11.44 60.29 9.32 62.59 10.02 62.83 9.23"/><path class="cls-1" d="M189.94,46.53H161.09A1.56,1.56,0,0,0,160,47a1.63,1.63,0,0,0-.48,1.14,1.61,1.61,0,0,0,1.61,1.6h2.14v64.39a12.29,12.29,0,1,0,24.57,0V49.74h2.14a1.55,1.55,0,0,0,1.13-.47,1.61,1.61,0,0,0-1.13-2.74Zm-24.09,22V49.84h19.33v8.78h-7.41a1.1,1.1,0,1,0,0,2.2h7.41v3.64h-7.41a1.1,1.1,0,1,0,0,2.2h7.41v1.83ZM185.17,80.2h-7.4a1.1,1.1,0,1,1,0-2.2h7.4a1.1,1.1,0,1,1,0,2.2Zm0-5.84h-7.4a1.11,1.11,0,1,1,0-2.21h7.4a1.11,1.11,0,1,1,0,2.21Z" transform="translate(-119.3 -17.99)"/></svg>