<svg id="Layer_1" data-name="Layer 1" xmlns="http://www.w3.org/2000/svg" viewBox="0 0 100 100"><defs><style>.cls-1{fill:#a6bfe0;}.cls-2{fill:#a0bfe4;}</style></defs><path class="cls-1" d="M201.92,39.76a2.64,2.64,0,0,1,2.64,2.64V63.18a2.64,2.64,0,0,0,2.64,2.64H228a2.64,2.64,0,0,1,2.64,2.64v37A2.64,2.64,0,0,1,228,108H207.2a2.64,2.64,0,0,0-2.64,2.64v20.78a2.64,2.64,0,0,1-2.64,2.64H165a2.64,2.64,0,0,1-2.63-2.64V110.68A2.64,2.64,0,0,0,159.7,108H138.91a2.63,2.63,0,0,1-2.63-2.63V68.46a2.64,2.64,0,0,1,2.63-2.64H159.7a2.64,2.64,0,0,0,2.64-2.64V42.4A2.64,2.64,0,0,1,165,39.76h36.95m0-2.83H165a5.47,5.47,0,0,0-5.46,5.47V63h-20.6a5.47,5.47,0,0,0-5.46,5.47v37a5.47,5.47,0,0,0,5.46,5.46h20.6v20.59a5.47,5.47,0,0,0,5.46,5.47h36.95a5.47,5.47,0,0,0,5.47-5.47V110.87H228a5.47,5.47,0,0,0,5.47-5.46V68.46A5.47,5.47,0,0,0,228,63H207.39V42.4a5.47,5.47,0,0,0-5.47-5.47Z" transform="translate(-133.45 -36.93)"/><path class="cls-2" d="M182.52,75.32c0-3.53,2.12-6.38,4.67-6.36s4.6,2.91,4.58,6.44-2.13,6.38-4.68,6.36S182.49,78.86,182.52,75.32Z" transform="translate(-133.45 -36.93)"/><path class="cls-2" d="M171.2,73.1c2.22-1.26,5.43.22,7.17,3.29s1.36,6.59-.86,7.85S172.07,84,170.33,81,169,74.36,171.2,73.1Z" transform="translate(-133.45 -36.93)"/><path class="cls-2" d="M165.18,92.84c-2.19-2.23-2.67-5.32-1.05-6.91s4.69-1.06,6.89,1.17,2.67,5.33,1,6.91S167.38,95.08,165.18,92.84Z" transform="translate(-133.45 -36.93)"/><path class="cls-2" d="M187.38,102.62c-7.06,1.83-11.21,9.42-13.35,1.17s4.34-17.06,8.92-18.25,14.53,3.37,16.66,11.62S194.44,100.79,187.38,102.62Z" transform="translate(-133.45 -36.93)"/><path class="cls-2" d="M202,83.29c-.83,3-3.27,5-5.45,4.37s-3.27-3.53-2.43-6.55,3.27-5,5.45-4.37S202.87,80.28,202,83.29Z" transform="translate(-133.45 -36.93)"/></svg>