<svg id="Layer_1" data-name="Layer 1" xmlns="http://www.w3.org/2000/svg" viewBox="0 0 126.26 55.92"><defs><style>.cls-1{fill:#a6bfe0;}</style></defs><path class="cls-1" d="M204.25,87.12l3.51-.59a2.39,2.39,0,0,0,2-2.76l-2.37-14a2.39,2.39,0,0,0-2.75-2L85.48,87.92a2.39,2.39,0,0,0-2,2.75l2.37,14a2.4,2.4,0,0,0,2.76,2l3.51-.59,1.54,9.11a8.9,8.9,0,0,0,8.47,7.42l31,1.09a8.92,8.92,0,0,0,9-6.94l3.8-16.85a2.94,2.94,0,0,1,5.19-.94l9.73,14.85a8.91,8.91,0,0,0,8.93,3.9,9.39,9.39,0,0,0,1.76-.48L200.24,106a8.9,8.9,0,0,0,5.55-9.79ZM96.71,114.66,93.35,94.74a1.58,1.58,0,0,1,1.29-1.82l2.8-.47L102,119.51A5.87,5.87,0,0,1,96.71,114.66Zm73.73-.29a6.64,6.64,0,0,1-1.16.32,5.85,5.85,0,0,1-5.86-2.57l-9.74-14.84,0-.07,0-.07A6,6,0,0,0,143,99.05l0,.08,0,.08-3.81,16.86a5.83,5.83,0,0,1-4.73,4.48,5.76,5.76,0,0,1-1.18.08l-28.11-1-4.68-27.7,91.4-15.44,4.68,27.7Zm29-11.33L194.86,76l2.73-.46a1.58,1.58,0,0,1,1.82,1.3l3.37,19.93A5.86,5.86,0,0,1,199.43,103Z" transform="translate(-83.49 -67.76)"/><rect class="cls-1" x="167.45" y="93.04" width="22.51" height="3.06" rx="1.53" transform="translate(-71.68 140.94) rotate(-62.26)"/><rect class="cls-1" x="168.36" y="90.57" width="8.85" height="3.06" rx="1.53" transform="translate(-76.48 128.53) rotate(-60.21)"/></svg>