<svg id="Layer_1" data-name="Layer 1" xmlns="http://www.w3.org/2000/svg" viewBox="0 0 100 73.63"><defs><style>.cls-1{fill:#a6bfe0;}</style></defs><path class="cls-1" d="M206.16,80.79a1.8,1.8,0,0,0-1.8,1.8,22.32,22.32,0,0,1-28.24,21.5,1.4,1.4,0,0,0-.83-.28h-.07a22.36,22.36,0,0,1-15.23-18l16.95-17.57a10.94,10.94,0,0,0-.75-15.82c-5.37-4.57-11.76-1.23-14,1.13L158,57.88l-4.2-4.33c-2.31-2.4-8.64-5.74-14-1.13A10.93,10.93,0,0,0,139,68.24l17,17.51a22.3,22.3,0,0,1-44.38-3.16,1.8,1.8,0,0,0-3.6,0,25.9,25.9,0,0,0,32,25.17c1.43,8.4,9.78,16,18.27,16s16.76-7.52,18.26-15.87a25.49,25.49,0,0,0,5.57.61A25.92,25.92,0,0,0,208,82.59,1.8,1.8,0,0,0,206.16,80.79Zm-47.93,40.08c-7.32,0-14.51-6.68-15.49-14a26,26,0,0,0,14-12.33v18.15a1.44,1.44,0,0,0,2.88,0V95.59a26,26,0,0,0,14,11.51C172.62,114.3,165.49,120.87,158.23,120.87Z" transform="translate(-107.95 -50.12)"/></svg>