<svg id="Layer_1" data-name="Layer 1" xmlns="http://www.w3.org/2000/svg" viewBox="0 0 100 100"><defs><style>.cls-1{fill:#a6bfe0;}</style></defs><path class="cls-1" d="M158.3,87.08l.77.39,1.35-2.63h0c.31.16.39,1.19-.39,2.71-1,2-2.06,2.37-2.83,2s-1.07-1.62-.12-3.48,1.68-2.14,2-2l.05,0,.74-1.44-.12-.07c-1-.49-2.38,0-3.89,2.89s-1,4.91.43,5.66,3.1.17,4.61-2.76c.91-1.77.94-2.91.44-3.51v0l1,.56.66-1.29-2.56-1.32Z" transform="translate(-138.24 -52.36)"/><polygon class="cls-1" points="23.49 26.75 23.5 26.74 28.6 27.74 29.61 26.75 28.72 21.66 28.73 21.66 31.7 24.72 33 23.45 29.11 19.45 27.09 21.42 27.85 25.84 27.84 25.84 23.42 24.98 21.33 27.01 25.22 31.01 26.47 29.81 23.49 26.75"/><path class="cls-1" d="M176.56,73.4c2.88-1.34,4.12-3.14,3.36-4.78s-3-1.79-5.8-.49-4.12,3.15-3.38,4.74S173.68,74.73,176.56,73.4Zm-1.9-4.1c1.78-.82,3.17-.78,3.58.1s-.37,2-2.22,2.83-3.17.8-3.6-.13S172.88,70.12,174.66,69.3Z" transform="translate(-138.24 -52.36)"/><polygon class="cls-1" points="48.8 17.99 48.69 16.01 53.18 15.74 53.12 14.69 48.63 14.96 48.55 13.7 53.92 13.39 53.84 12.1 46.66 12.52 46.99 18.1 48.8 17.99"/><path class="cls-1" d="M195.27,68.46l3.41.71c1.31.27,1.31.65,1.22,1.08l-.24,1.14,1.78.37.23-1.14c.14-.66.07-1.25-1.11-1.67v0c1.18,0,1.59-.46,1.7-1,.2-1-.5-1.81-3-2.32l-5.08-1L193.09,70l1.78.37Zm.47-2.27,3.31.69c1.18.24,1.57.56,1.48,1s-.61.59-1.76.35l-3.3-.69Z" transform="translate(-138.24 -52.36)"/><polygon class="cls-1" points="71.32 22.02 66.35 19.5 66.82 18.57 70.61 20.49 71.04 19.64 67.25 17.72 67.71 16.82 72.58 19.29 73.17 18.14 66.67 14.85 64.14 19.83 70.73 23.17 71.32 22.02"/><polygon class="cls-1" points="77.02 28.51 77.86 27.54 73.65 23.88 74.33 23.09 77.55 25.88 78.17 25.16 74.96 22.37 75.62 21.61 79.75 25.19 80.6 24.22 75.09 19.44 71.43 23.66 77.02 28.51"/><path class="cls-1" d="M215.65,87.83h-6.53a24.3,24.3,0,0,0-21.47,13.25,1.61,1.61,0,0,0,.59,2.12,1.54,1.54,0,0,0,2.1-.62A21.27,21.27,0,0,1,209.12,91h4.95c-.75,10.76-9,19.52-19.43,20.46a1.59,1.59,0,0,0,.14,3.16h.15c12.48-1.12,22.26-12.19,22.26-25.19A1.56,1.56,0,0,0,215.65,87.83Z" transform="translate(-138.24 -52.36)"/><path class="cls-1" d="M168.55,95.13H162a1.55,1.55,0,0,0-1.53,1.58c0,14,10.95,25.3,24.41,25.3h5v16.67a1.54,1.54,0,1,0,3.07,0V120.43C193,106.48,182,95.13,168.55,95.13Zm0,3.16c11.22,0,20.5,9,21.29,20.56H184.9c-11.22,0-20.5-9-21.29-20.56Z" transform="translate(-138.24 -52.36)"/><path class="cls-1" d="M188.24,52.36a50,50,0,1,0,50,50A50.06,50.06,0,0,0,188.24,52.36Zm47,50a47,47,0,1,1-47-47A47,47,0,0,1,235.22,102.36Z" transform="translate(-138.24 -52.36)"/></svg>