<svg id="Layer_1" data-name="Layer 1" xmlns="http://www.w3.org/2000/svg" viewBox="0 0 83.64 100"><defs><style>.cls-1{fill:#a6bfe0;}</style></defs><path class="cls-1" d="M186.15,138l10.53-48.23,1.6.35a1.23,1.23,0,1,0,.53-2.4L177.2,83a1.23,1.23,0,1,0-.53,2.4l1.61.35L167.75,134a9.42,9.42,0,1,0,18.4,4Zm-9-37.78.3-1.36,5.55,1.21a.85.85,0,0,0,.36-1.66l-5.55-1.21.59-2.72L184,95.73a.85.85,0,0,0,.37-1.65l-5.56-1.21,1.44-6.58,14.48,3.17-3,14Zm-1.6,3.39a.84.84,0,0,1,1-.64l5.54,1.21a.84.84,0,1,1-.36,1.65l-5.55-1.21A.84.84,0,0,1,175.57,103.65Zm5.24,6.6L175.26,109a.85.85,0,0,1-.65-1,.83.83,0,0,1,1-.64l5.54,1.21a.84.84,0,1,1-.35,1.65Z" transform="translate(-116.14 -45.45)"/><g id="lYNUJm.tif"><path class="cls-1" d="M183.79,45.6l-.14-.14C183.77,45.43,183.82,45.48,183.79,45.6Z" transform="translate(-116.14 -45.45)"/><path class="cls-1" d="M131.16,46.2c3.09-1,8.48.23,11.76.28q6.14.08,12.26,0c8.17-.05,16.44-.69,24.59-.44a1.35,1.35,0,0,0-.8,2,8.35,8.35,0,0,1,.54,1.41,4.41,4.41,0,0,1-1,3.14c-1,1.58-2.73,3.16-2.73,4.83a9.42,9.42,0,0,1,1.39,2.87c.88,1.07,1.9,3.46-.36,3.86,1.32-.23-1.18,3.36-1.22,3.42-1.46,1.73-3.77,2.75-5.68,3.93a9.1,9.1,0,0,1-2.06,1.05c-.85.26-8.66,1-6.43,3.86.59,1.27-1,2.55.3,3.76,1,1-1.14,1.87.39,2.7-.73,1.62-2.39,2.43-2.35,4.6a4.36,4.36,0,0,1-.05,1.35c-.28,1-1.4,1.39-1.95,2.22a6.24,6.24,0,0,0-.55,2.93c-.21,2.21-2.21,2.22-3.33,3.76-.82,1.15-1,2.62-1.68,3.91a20.93,20.93,0,0,0-2.35,10.72c-.53,3.42-.7,6.89-1.23,10.32-.22,1.39-.29,3.67-1.14,4.84-.35.48-2.25.35-1.79,1.47.55,1.34-1.3,2.09-.71,3.35.17.82-.14,1.77.69,2.34.72.27.18,1.74,1.19,1.31.48-.2.48-.2.69.22.51,1,.51,1.06-.68,1-8.35-.31-16.71-.49-25.06-.72-1.3.07-1.27-2.28-.92-3,1-9.23.56-18.71,1.25-28,.55-1.78-1.58-1.77-1.59-3.33-.21-.91-.54-1-1.43-.89-1.48.16-1.48.16-1.92,1.59-.11.2,0,.59-.4.54-1.19-.26-.12-1.5-.62-2.23.77-2.44,2.94-4.3,1.88-6.9a32.63,32.63,0,0,1-1.8-10.11,10.25,10.25,0,0,1,1.49-5.36c2.54-2.22,2.61-2.79,1.73-6-.58-1,.39-2,.84-2.81,1.57-2.82-1.72-5-2.52-7.36-.79-1.55.72-2.77.5-4.27s1.13-2.47.95-3.84c-.15-1-1.33-1.51-1.35-2.63,0-1.55,2.31-2.53,1-4.29C117.42,44.77,129.38,46.76,131.16,46.2Z" transform="translate(-116.14 -45.45)"/></g></svg>