<svg width="200" height="124" viewBox="0 0 200 124" fill="none" xmlns="http://www.w3.org/2000/svg">
<rect width="63.6156" height="63.6156" fill="#9DC1F3"/>
<rect x="68.1921" width="63.6156" height="63.6156" fill="#9DC1F3"/>
<rect x="136.384" width="63.6156" height="63.6156" fill="#9DC1F3"/>
<path d="M30.9592 43.73C38.0255 43.73 40.9546 37.6888 40.9546 31.135C40.9546 23.6293 37.6594 18.5034 31.2887 18.5034H23.1605V43.73H30.9592ZM27.9203 22.7872H30.4466C33.9248 22.7872 35.9752 24.8375 35.9752 30.9153C35.9752 36.9931 34.1079 39.4462 30.5198 39.4462H27.9203V22.7872Z" fill="#FAFAF8"/>
<path d="M102.441 22.6773V18.357H97.9744V22.6773H102.441ZM102.478 43.73V25.7895H97.9744V43.73H102.478Z" fill="#FAFAF8"/>
<path d="M164.305 43.73V33.2586H171.92V43.73H176.68V18.5034H171.92V28.7551H164.305V18.5034H159.545V43.73H164.305Z" fill="#FAFAF8"/>
<path d="M8.52391 99.9428C9.92437 103.815 13.3431 107.233 20.4278 107.233C27.3065 107.233 31.5903 103.732 31.5903 98.7895C31.5903 94.4645 28.7894 91.746 23.3523 90.2631L19.0685 89.1098C16.2676 88.3684 14.5376 87.3386 14.5376 85.1556C14.5376 82.8078 16.8031 81.5309 19.9335 81.5309C23.2699 81.5309 25.6177 83.1785 26.4827 86.0206L26.5651 86.3913L31.096 84.9496L31.0136 84.5789C29.6132 80.2128 25.7413 77.6178 20.1395 77.6178C14.1257 77.6178 9.63604 80.5835 9.63604 85.6087C9.63604 90.3043 12.89 92.405 17.4621 93.6819L21.128 94.6705C24.7527 95.659 26.318 96.73 26.318 99.1602C26.318 101.508 24.2173 103.156 20.5102 103.156C16.556 103.156 14.0434 101.467 12.6429 97.6773L12.4781 97.1419L8.19439 99.2014L8.52391 99.9428ZM48.7369 106.616V82.7254H59.4051V78.2357H32.8376V82.7254H43.5058V106.616H48.7369ZM75.3826 107.233C82.7556 107.233 87.9455 103.65 87.9455 95.0824V78.2357H82.7556V94.6293C82.7556 100.767 79.9959 102.826 75.5062 102.826C71.0576 102.826 68.2155 100.725 68.2155 94.5881V78.2357H62.902V94.9588C62.902 103.444 67.886 107.233 75.3826 107.233ZM106.478 106.616C116.117 106.616 120.771 100.437 120.771 92.405C120.771 83.5492 115.54 78.2357 106.684 78.2357H94.2447V106.616H106.478ZM99.4758 82.643H106.19C111.874 82.643 115.375 85.238 115.375 92.2403C115.375 99.1602 112.08 102.208 106.231 102.208H99.4758V82.643ZM131.092 106.616V78.2357H125.861V106.616H131.092ZM150.621 107.233C159.271 107.233 165.12 100.849 165.12 92.4462C165.12 84.0023 159.271 77.6178 150.621 77.6178C141.971 77.6178 136.122 84.0023 136.122 92.4462C136.122 100.849 141.971 107.233 150.621 107.233ZM150.621 102.867C145.266 102.867 141.477 98.913 141.477 92.4462C141.477 85.9382 145.266 81.984 150.621 81.984C155.976 81.984 159.724 85.9382 159.724 92.4462C159.724 98.913 155.976 102.867 150.621 102.867ZM168.296 99.9428C169.696 103.815 173.115 107.233 180.2 107.233C187.078 107.233 191.362 103.732 191.362 98.7895C191.362 94.4645 188.561 91.746 183.124 90.2631L178.84 89.1098C176.04 88.3684 174.31 87.3386 174.31 85.1556C174.31 82.8078 176.575 81.5309 179.705 81.5309C183.042 81.5309 185.39 83.1785 186.255 86.0206L186.337 86.3913L190.868 84.9496L190.786 84.5789C189.385 80.2128 185.513 77.6178 179.911 77.6178C173.898 77.6178 169.408 80.5835 169.408 85.6087C169.408 90.3043 172.662 92.405 177.234 93.6819L180.9 94.6705C184.525 95.659 186.09 96.73 186.09 99.1602C186.09 101.508 183.989 103.156 180.282 103.156C176.328 103.156 173.815 101.467 172.415 97.6773L172.25 97.1419L167.966 99.2014L168.296 99.9428Z" fill="black"/>
</svg>
