<svg id="Layer_1" data-name="Layer 1" xmlns="http://www.w3.org/2000/svg" viewBox="0 0 84.01 90"><defs><style>.cls-1{fill:#0c2244;}</style></defs><path class="cls-1" d="M284.77,376.1l19.1-11,19.09,11v22l-19.09,11-19.1-11v-22m-2.26,0v22a2.27,2.27,0,0,0,1.13,2l19.1,11a2.28,2.28,0,0,0,2.26,0l19.09-11a2.27,2.27,0,0,0,1.13-2v-22a2.27,2.27,0,0,0-1.13-2l-19.09-11a2.28,2.28,0,0,0-2.26,0l-19.1,11a2.27,2.27,0,0,0-1.13,2Z" transform="translate(-244.74 -362.82)"/><path class="cls-1" d="M290.55,379.44l13.32-7.7,13.32,7.7v15.38l-13.32,7.69-13.32-7.69V379.44m-1.51-.87v17.12l14.83,8.56,14.82-8.56V378.57L303.87,370,289,378.57Z" transform="translate(-244.74 -362.82)"/><path class="cls-1" d="M261.06,417.49l19.1-11,19.09,11v22l-19.09,11-19.1-11v-22m-2.26,0v22a2.26,2.26,0,0,0,1.13,2l19.1,11a2.28,2.28,0,0,0,2.26,0l19.09-11a2.26,2.26,0,0,0,1.13-2v-22a2.26,2.26,0,0,0-1.13-2l-19.09-11a2.23,2.23,0,0,0-2.26,0l-19.1,11a2.26,2.26,0,0,0-1.13,2Z" transform="translate(-244.74 -362.82)"/><path class="cls-1" d="M266.84,420.82l13.32-7.69,13.32,7.69V436.2l-13.32,7.69-13.32-7.69V420.82m-1.51-.87v17.12l14.83,8.56L295,437.07V420l-14.82-8.56L265.33,420Z" transform="translate(-244.74 -362.82)"/><path class="cls-1" d="M254.86,380.13l-.92,7.68-4.78-6.08a.57.57,0,0,0-.8-.1.58.58,0,0,0-.09.8l4.78,6.08-7.68-.92a.56.56,0,0,0-.63.49.57.57,0,0,0,.49.63l7.68.92-6.07,4.78a.56.56,0,1,0,.69.89l6.08-4.78-.91,7.68a.56.56,0,0,0,.49.63.58.58,0,0,0,.63-.5l.92-7.68,4.78,6.08a.56.56,0,0,0,.79.1.58.58,0,0,0,.22-.45.59.59,0,0,0-.12-.35L255.63,390l7.68.92a.55.55,0,0,0,.62-.49.2.2,0,0,0,0-.07.56.56,0,0,0-.5-.56l-7.68-.92,6.08-4.78a.56.56,0,0,0,.21-.44.55.55,0,0,0-.12-.35.56.56,0,0,0-.79-.1l-6.08,4.78.92-7.68v-.06a.57.57,0,0,0-.5-.57A.56.56,0,0,0,254.86,380.13Z" transform="translate(-244.74 -362.82)"/><path class="cls-1" d="M322.53,423.23l-.63,5.22-5.21-.63a.57.57,0,0,0-.14,1.13l5.22.62-.62,5.22a.56.56,0,0,0,.49.63.58.58,0,0,0,.63-.5l.62-5.22,5.22.63a.58.58,0,0,0,.63-.5v-.06a.57.57,0,0,0-.49-.57l-5.22-.62.62-5.22s0,0,0-.06a.57.57,0,0,0-1.13-.07Z" transform="translate(-244.74 -362.82)"/></svg>