<svg id="Layer_1" data-name="Layer 1" xmlns="http://www.w3.org/2000/svg" viewBox="0 0 102 89.23"><defs><style>.cls-1{fill:#0d2344;}</style></defs><path class="cls-1" d="M49,99v0a.7.7,0,0,0,0-.14A.74.74,0,0,1,49,99Zm-.41,1a.22.22,0,0,0,.05-.08s0-.07,0-.1a.51.51,0,0,1,0,.1Zm34.91-6.81c0,.19-.1.38-.17.57.07-.19.12-.38.18-.57a4.28,4.28,0,0,0,.12-.58C83.59,92.79,83.54,93,83.49,93.18ZM65.55,60.33l.1.18h0Z" transform="translate(-10.93 -19.02)"/><path class="cls-1" d="M39.27,104.34h.16l-.26,0A.38.38,0,0,1,39.27,104.34Z" transform="translate(-10.93 -19.02)"/><path class="cls-1" d="M110.89,87.88,92.68,50.41a14.41,14.41,0,0,1-1.43-6.21V21.81h4.17a1.39,1.39,0,0,0,1.4-1.39A1.44,1.44,0,0,0,95.28,19H64.77a1.42,1.42,0,0,0-1.41,1.4,1.4,1.4,0,0,0,1.41,1.39H69V44.2a14.28,14.28,0,0,1-1.44,6.21l-3.16,6.51-.56,1.13,0,0a13.64,13.64,0,0,0-10-4.38,13.16,13.16,0,0,0-1.77.12S49.48,41.36,49.5,41.36a7.75,7.75,0,0,0,2.73-1.62l.29-.29a8,8,0,0,0,.55-.63,2.85,2.85,0,0,0,.25-.33,5,5,0,0,0,.42-.67,7.71,7.71,0,0,0,.6-6.19c-.05-.11-.08-.23-.12-.34s-.19-.44-.29-.66a1.41,1.41,0,0,0-.17-.32c-.07-.13-.15-.26-.23-.38a5.23,5.23,0,0,0-.39-.57,3.11,3.11,0,0,0-.3-.35.69.69,0,0,0-.16-.18c-.09-.11-.19-.21-.28-.31A7.73,7.73,0,1,0,47,41.77l.61,0s2.54,12.38,2.53,12.38a13.17,13.17,0,0,0-5.56,3.13,12.54,12.54,0,0,0-2.79,3.66,16.71,16.71,0,0,0-.73,1.68c-.1.29-.19.57-.27.87L26.33,60.54a8.16,8.16,0,0,0-.2-1.91.89.89,0,0,0-.07-.28,3.17,3.17,0,0,0-.12-.44,1.06,1.06,0,0,0-.09-.25c-.05-.16-.11-.32-.17-.47s-.17-.38-.27-.57A7.91,7.91,0,0,0,24.23,55a7.67,7.67,0,0,0-5.69-2.5c-6.49,0-10,8.17-5.69,13a7.75,7.75,0,0,0,5.69,2.49A7.84,7.84,0,0,0,26,62.35l14.5,3.09a13.18,13.18,0,0,0,3.37,10.85,13.69,13.69,0,0,0,3.84,2.91s-4.22,10-4.22,10l-.4-.08H43c-.82,0-2.48,0-2.7,0l-.1,0a7.21,7.21,0,0,0-2.73,1.16,8.22,8.22,0,0,0-3.41,5.08c-1.61,7.85,9.23,12.26,13.8,5.82a7.8,7.8,0,0,0-.66-9.64A2.52,2.52,0,0,1,47,91.3l-.23-.23a2.5,2.5,0,0,0-.23-.23,5.24,5.24,0,0,0-1.26-.94l4.19-10a13.54,13.54,0,0,0,3.38.69c.33,0,.67,0,1,0a13.3,13.3,0,0,0,8.28-2.86L70,86.41a7.83,7.83,0,0,0,.2,10.21,7.68,7.68,0,0,0,5.69,2.48c6.57,0,10.26-8.12,5.77-13a8.87,8.87,0,0,0-.9-.84,7,7,0,0,0-.65-.46A7.63,7.63,0,0,0,76,83.62a7.87,7.87,0,0,0-4.59,1.48l-7.9-8.6a11.6,11.6,0,0,0,1.36-1.71,13.54,13.54,0,0,0,2.16-10.22,12.48,12.48,0,0,0-.42-1.65,7.71,7.71,0,0,0-.3-.8,13.07,13.07,0,0,0-.74-1.56l-.11-.18a1.88,1.88,0,0,1,.12.18l.62-1.26,4.07-8.17a13.46,13.46,0,0,0,1.45-6.06V21.81H88.46V45.07a13.57,13.57,0,0,0,1.43,6.06L101.7,74.79H66.31a13.93,13.93,0,0,1-1.19,1.69l6.52,7.09A9.08,9.08,0,0,1,76,82.44a8.88,8.88,0,0,1,6.53,2.87,9,9,0,0,1-13.2,12.12,9.06,9.06,0,0,1-.87-10.94L62,79.37a14.48,14.48,0,0,1-8.12,2.48,13.47,13.47,0,0,1-1.56-.09l-3,6.13A14.53,14.53,0,0,0,48,90.65l.1.1a8.91,8.91,0,0,1,2.38,6A8.78,8.78,0,0,1,49,101.53a13.16,13.16,0,0,0,11.54,6.72h39a13.32,13.32,0,0,0,11.27-20.37ZM47.84,38l-.52,0-.33,0a4,4,0,0,1-4-4.18A4,4,0,0,1,47,30a4,4,0,0,1,3,1.29A4,4,0,0,1,49.71,37a4,4,0,0,1-1.41.83ZM22.39,61.32a4,4,0,0,1-1.14,1.81,4,4,0,0,1-5.66-.24,4,4,0,0,1,.24-5.66,4,4,0,0,1,5.66.23,4.56,4.56,0,0,1,1.14,3.06ZM44.28,99.67a4,4,0,0,1-5.64-.26,4,4,0,0,1-1.06-2.89,4,4,0,0,1,1.31-2.77,3.8,3.8,0,0,1,2.71-1,5.23,5.23,0,0,1,1.09.11l.3.07.53.28a4.93,4.93,0,0,1,.94.88A3.92,3.92,0,0,1,44.28,99.67ZM72.86,88.8l.31-.36.45-.32A4,4,0,0,1,76,87.34,3.91,3.91,0,0,1,79,88.62a4.05,4.05,0,0,1-3,6.76,4,4,0,0,1-3-1.27A4.09,4.09,0,0,1,72.86,88.8Zm-12-14.86-.5.51-.41.34-.13.1a9.53,9.53,0,0,1-5.17,2c-.27,0-.54,0-.8,0a10.16,10.16,0,0,1-3.19-.53L50,76.19l-.61-.3a9.52,9.52,0,0,1-2.77-2.12A9.32,9.32,0,0,1,44.13,66l.25-1.59A9.52,9.52,0,0,1,47.08,60a9.85,9.85,0,0,1,4-2.28l.73-.2.65-.08a9.07,9.07,0,0,1,1.28-.09A9.68,9.68,0,0,1,61,60.5a10.86,10.86,0,0,1,1,1.28,9.29,9.29,0,0,1,1.35,3.3A9.92,9.92,0,0,1,60.84,73.94Z" transform="translate(-10.93 -19.02)"/></svg>