<svg id="Layer_1" data-name="Layer 1" xmlns="http://www.w3.org/2000/svg" viewBox="0 0 91 79.73"><defs><style>.cls-1{fill:#a6bfe0;}.cls-2,.cls-3{fill:#0c2244;}.cls-3{stroke:#0c2244;stroke-miterlimit:10;}</style></defs><path class="cls-1" d="M286.64,262.74v-.05l0-.06.16.06.79.23-.49-.12.47.17,0,.14,0,.07-.1.13-2.1,2.16Zm.83-.66h-.53v-.14l.06-.1,1-3.85v4l0,.16,0,.12-.1.12Zm14.39-33.45-.15-.25.73-.72a.71.71,0,0,1,.12.18l.43.75-.84,0Z" transform="translate(-253.36 -191.02)"/><path class="cls-2" d="M302.05,228a1.4,1.4,0,0,1,.1.16h0l-.09-.16M318,256.44a4.64,4.64,0,0,1-.11.51l-.15.51c.05-.17.1-.34.14-.51a4.7,4.7,0,0,0,.12-.51m-.26,1h0m-30.26,4.48a.53.53,0,0,1,0,.12v0a.56.56,0,0,0,0-.12m-.33.86v0m0,0,0,.06a.16.16,0,0,1,0,.07l0-.07,0-.06m15.68-35.48-1.63,1.14,0,0a.75.75,0,0,0,.07.12l.29.48h2.33l-.9-1.51a1.15,1.15,0,0,0-.18-.27Zm-16.58,35v0l0,0,0,.07v0l-2.66,5.39,4.27-4.26a1.14,1.14,0,0,0,.28-.44l0-.08v0l0-.08-1.32-.38-.55-.27Z" transform="translate(-253.36 -191.02)"/><path class="cls-3" d="M278.87,266.8H279l-.23,0Z" transform="translate(-253.36 -191.02)"/><path class="cls-3" d="M342.06,252.28,326,219.21a12.67,12.67,0,0,1-1.26-5.47V194h3.69a1.23,1.23,0,0,0,1.23-1.23,1.27,1.27,0,0,0-1.36-1.23H301.37a1.23,1.23,0,1,0,0,2.46h3.69v19.76a12.54,12.54,0,0,1-1.27,5.47L301,225l-.5,1,0-.05a12,12,0,0,0-8.79-3.86,11.69,11.69,0,0,0-1.56.11s-2.23-10.93-2.22-10.93a6.79,6.79,0,0,0,2.41-1.43l.26-.26c.17-.18.33-.36.48-.55a3.15,3.15,0,0,0,.22-.29,4.49,4.49,0,0,0,.37-.59,6.8,6.8,0,0,0,.54-5.47l-.12-.3a6,6,0,0,0-.25-.58,1.51,1.51,0,0,0-.15-.28,3.79,3.79,0,0,0-.2-.34,5.05,5.05,0,0,0-.35-.5,3.56,3.56,0,0,0-.26-.31,1.07,1.07,0,0,0-.14-.16l-.25-.27a6.82,6.82,0,1,0-4.77,11.69l.54,0s2.24,10.93,2.23,10.93a11.72,11.72,0,0,0-4.9,2.76,11,11,0,0,0-2.47,3.23,11.72,11.72,0,0,0-.64,1.49c-.09.25-.17.5-.24.76l-12.75-2.59a7.26,7.26,0,0,0-.17-1.68,1,1,0,0,0-.06-.25c0-.13-.07-.26-.11-.39a.83.83,0,0,0-.08-.22c0-.14-.1-.28-.15-.41s-.15-.34-.24-.5a6.45,6.45,0,0,0-1.05-1.48,6.76,6.76,0,0,0-5-2.2c-5.73,0-8.86,7.2-5,11.42a6.84,6.84,0,0,0,5,2.2,6.91,6.91,0,0,0,6.54-4.89l12.8,2.73a11.63,11.63,0,0,0,3,9.57,12.21,12.21,0,0,0,3.39,2.57l-3.73,8.82-.35-.07h-.05c-.73,0-2.19,0-2.38,0l-.09,0a6.53,6.53,0,0,0-2.41,1,7.32,7.32,0,0,0-3,4.49c-1.42,6.92,8.14,10.81,12.18,5.13a6.91,6.91,0,0,0-.58-8.51c-.06-.07-.13-.14-.19-.22l-.2-.2-.2-.2a4.66,4.66,0,0,0-1.11-.83l3.69-8.79a12.24,12.24,0,0,0,3,.61c.29,0,.59,0,.88,0a11.71,11.71,0,0,0,7.31-2.52l7,7.59a6.91,6.91,0,0,0,.18,9,6.77,6.77,0,0,0,5,2.19c5.8,0,9.05-7.16,5.09-11.47a7,7,0,0,0-.8-.74c-.19-.15-.37-.28-.57-.41a6.76,6.76,0,0,0-3.61-1,6.94,6.94,0,0,0-4.06,1.31l-7-7.59a10.82,10.82,0,0,0,1.21-1.51,12,12,0,0,0,1.9-9,11,11,0,0,0-.37-1.45c-.08-.24-.16-.48-.26-.72a12.3,12.3,0,0,0-.66-1.37L302,228a1.4,1.4,0,0,1,.1.16l.55-1.11,3.59-7.21a12,12,0,0,0,1.27-5.34V194h14.75v20.53a11.94,11.94,0,0,0,1.26,5.34L334,240.73H302.73a12.54,12.54,0,0,1-1.05,1.49l5.75,6.26a8.06,8.06,0,0,1,3.88-1,7.87,7.87,0,1,1-5.89,13.22,8,8,0,0,1-.77-9.65l-5.77-6.28a12.78,12.78,0,0,1-7.17,2.18,10.29,10.29,0,0,1-1.37-.08l-2.63,5.42a12.28,12.28,0,0,0-1.16,2.43l.08.09a7.85,7.85,0,0,1,2.1,5.32,7.76,7.76,0,0,1-1.24,4.19,11.59,11.59,0,0,0,10.18,5.93h34.45a11.75,11.75,0,0,0,9.94-18Zm-55.63-44-.46,0-.29,0a3.57,3.57,0,0,1-2.61-1.14,3.58,3.58,0,0,1,.22-5,3.55,3.55,0,0,1,2.39-.93,3.51,3.51,0,0,1,2.62,1.14,3.56,3.56,0,0,1-.22,5,3.44,3.44,0,0,1-1.24.74ZM264,228.84a3.56,3.56,0,0,1-1,1.6,3.54,3.54,0,0,1-4.78-5.21,3.54,3.54,0,0,1,5,.21,4,4,0,0,1,1,2.69Zm19.31,33.84a3.56,3.56,0,0,1-5-.23,3.57,3.57,0,0,1-.93-2.55,3.5,3.5,0,0,1,1.15-2.44,3.36,3.36,0,0,1,2.39-.91,4.61,4.61,0,0,1,1,.1l.27.06.46.25a4.75,4.75,0,0,1,.84.77A3.45,3.45,0,0,1,283.28,262.68Zm25.22-9.59.28-.32.39-.28a3.62,3.62,0,0,1,2.14-.69,3.46,3.46,0,0,1,2.57,1.13,3.58,3.58,0,0,1-2.68,6,3.53,3.53,0,0,1-2.61-1.12A3.62,3.62,0,0,1,308.5,253.09ZM297.9,240l-.44.45-.36.3-.12.09a8.41,8.41,0,0,1-4.55,1.78c-.24,0-.49,0-.72,0a8.94,8.94,0,0,1-2.81-.46l-.6-.21-.54-.26a8.5,8.5,0,0,1-2.44-1.87,8.26,8.26,0,0,1-2.17-6.85l.23-1.4a8.4,8.4,0,0,1,2.38-3.91,8.7,8.7,0,0,1,3.56-2l.65-.18.57-.07a8.6,8.6,0,0,1,7.51,2.71,9,9,0,0,1,.86,1.12,8.3,8.3,0,0,1,1.19,2.92A8.76,8.76,0,0,1,297.9,240Z" transform="translate(-253.36 -191.02)"/></svg>