<svg id="Layer_1" data-name="Layer 1" xmlns="http://www.w3.org/2000/svg" viewBox="0 0 83.49 90"><defs><style>.cls-1{fill:#0c2244;}</style></defs><path class="cls-1" d="M314,452.82A38.18,38.18,0,0,1,301.1,378.7l-6.46,12.54a1.06,1.06,0,0,0,.08,1.51,1.09,1.09,0,0,0,1,.24,1.11,1.11,0,0,0,.51-.32l8.73-16a1.07,1.07,0,0,0-.48-1.74l-17.27-5.24a1.07,1.07,0,1,0-.62,2.05l12.69,3.85A41.75,41.75,0,0,0,314,456.39c.5,0,1,0,1.51,0l-.13-3.56C314.87,452.82,314.41,452.82,314,452.82Z" transform="translate(-272.25 -369.64)"/><path class="cls-1" d="M354.72,405.44a41.54,41.54,0,0,0-40.51-32.56v3.57A38.18,38.18,0,0,1,327,450.54l6.38-11.71a1.07,1.07,0,0,0-1.08-1.75,1,1,0,0,0-.51.32L323,452.61a1.09,1.09,0,0,0-.24,1,1.06,1.06,0,0,0,.72.73l17.27,5.24a1.07,1.07,0,1,0,.62-2l-12.69-3.85A41.81,41.81,0,0,0,354.72,405.44Z" transform="translate(-272.25 -369.64)"/><path class="cls-1" d="M311.36,436.69A1.71,1.71,0,0,1,310,436l-15.09-19a1.7,1.7,0,1,1,2.67-2.12l13.46,16.95,19.56-37.36a1.71,1.71,0,1,1,3,1.59l-20.77,39.68a1.69,1.69,0,0,1-1.35.91Z" transform="translate(-272.25 -369.64)"/></svg>