<svg id="Layer_1" data-name="Layer 1" xmlns="http://www.w3.org/2000/svg" viewBox="0 0 73.07 90"><defs><style>.cls-1{fill:#0d2344;}</style></defs><path class="cls-1" d="M63,57.52c.45-1.69,1.8-2.79,3-2.47s1.84,2,1.39,3.65-1.8,2.79-3,2.46S62.54,59.2,63,57.52Zm-3.5,3.64c1.22-.33,1.84-2,1.38-3.65s-1.8-2.78-3-2.46S56,57,56.46,58.7,58.27,61.49,59.49,61.16ZM56,61.72c-.77-1.34-2.18-2-3.15-1.41s-1.12,2.1-.35,3.43,2.18,2,3.15,1.42S56.8,63.06,56,61.72Zm5.9.74c-2.34,0-6.52,3.41-6.52,7.61s2.92,1.1,6.52,1.1,6.53,3.11,6.53-1.1S64.27,62.46,61.93,62.46Zm5.9-.74c-.77,1.34-.62,2.88.35,3.44s2.38-.08,3.15-1.42S72,60.87,71,60.31,68.6,60.38,67.83,61.72ZM87.1,63.64C96.69,74.08,100.91,84,97,89.33c-1.7,2.33-4.75,3.43-8.72,3.43a37.53,37.53,0,0,1-11.7-2.27,57,57,0,0,1-1.89,5.42A4.37,4.37,0,0,0,72.79,95a54.46,54.46,0,0,0,1.81-5.25,86.6,86.6,0,0,1-12.67-6.13,89.6,89.6,0,0,1-10,5.06c-.91.38-1.79.74-2.67,1.07,3,10.14,7.59,16.78,12.67,16.78,2.44,0,4.76-1.52,6.86-4.24a4.18,4.18,0,0,0,1.74,1.15c-2.55,3.31-5.46,5.18-8.6,5.18-6.1,0-11.41-7.07-14.69-18.15a37.53,37.53,0,0,1-11.7,2.27c-4,0-7-1.1-8.72-3.43C23,84,27.17,74.08,36.76,63.64,27.17,53.2,23,43.23,26.82,38A8.89,8.89,0,0,1,33,34.68a4.29,4.29,0,0,0-.4,1.82,1.62,1.62,0,0,0,0,.31,6.52,6.52,0,0,0-4.1,2.36c-3.18,4.35,1,13.4,9.71,22.92C40,60.27,41.89,58.44,44,56.63a92.21,92.21,0,0,1,2.72-17.82,49.15,49.15,0,0,0-5.4-1.55,3.77,3.77,0,0,0,.08-.76,4.31,4.31,0,0,0-.23-1.39,48.39,48.39,0,0,1,6.12,1.67c3.28-11.08,8.59-18.14,14.69-18.14S73.34,25.7,76.62,36.78C86.25,33.51,93.91,33.67,97,38,100.91,43.23,96.69,53.2,87.1,63.64Zm-7,0c0,1.37,0,2.73-.07,4.07q2.2-2,4.15-4.06c-1.29-1.36-2.68-2.71-4.15-4.07C80.1,60.9,80.12,62.26,80.12,63.63Zm-2.24-6c-2.28-2-4.72-3.94-7.29-5.83-2.88-2.1-5.79-4-8.66-5.72-2.87,1.7-5.77,3.62-8.65,5.72-2.58,1.89-5,3.84-7.29,5.83-.11,2-.17,4-.17,6s.06,4.05.17,6c2.27,2,4.71,3.93,7.29,5.82,2.88,2.11,5.79,4,8.66,5.73,2.87-1.71,5.78-3.63,8.65-5.73,2.57-1.89,5-3.84,7.29-5.82q.16-3,.16-6C78,61.6,78,59.59,77.88,57.63Zm-.2-2.93a90.66,90.66,0,0,0-2.51-15.15A84.57,84.57,0,0,0,64,44.87c2.59,1.59,5.21,3.34,7.82,5.25C73.86,51.62,75.82,53.15,77.68,54.7ZM49.26,37.51a85,85,0,0,1,12.67,6.12A86.12,86.12,0,0,1,74.6,37.5c-3-10.14-7.59-16.78-12.67-16.78S52.23,27.37,49.26,37.51ZM46.18,54.69C48,53.15,50,51.62,52,50.12c2.61-1.91,5.23-3.66,7.81-5.25a83.89,83.89,0,0,0-11.16-5.32A90.53,90.53,0,0,0,46.18,54.69Zm-6.52,9c1.3,1.35,2.69,2.71,4.14,4,0-1.33-.07-2.69-.07-4.06s0-2.72.07-4.05Q41.61,61.61,39.66,63.64Zm7,24.82A92.23,92.23,0,0,1,44,70.65c-2.06-1.81-4-3.65-5.74-5.47C29.53,74.7,25.32,83.75,28.5,88.1,31.06,91.6,38,91.47,46.67,88.46ZM59.86,82.4c-2.58-1.58-5.2-3.34-7.82-5.25Q49,74.9,46.19,72.58a89.55,89.55,0,0,0,2.5,15.14A82.75,82.75,0,0,0,59.86,82.4Zm15.31,5.32a89.85,89.85,0,0,0,2.5-15.15q-2.79,2.33-5.85,4.58C69.2,79.06,66.59,80.82,64,82.4A84.57,84.57,0,0,0,75.17,87.72ZM85.65,65.18C83.89,67,82,68.84,79.91,70.65a92.9,92.9,0,0,1-2.72,17.8,35.71,35.71,0,0,0,11.22,2.27c3.22,0,5.65-.85,7-2.62C98.54,83.75,94.34,74.7,85.65,65.18Zm0-3.09c6.74-7.37,10.77-14.46,10.77-19.31a6,6,0,0,0-1.06-3.61c-1.31-1.78-3.73-2.62-7-2.62a35.71,35.71,0,0,0-11.22,2.26,93,93,0,0,1,2.72,17.82C82,58.44,83.89,60.27,85.65,62.09ZM74.51,96.43a3.73,3.73,0,0,0-1.93-.91,3,3,0,0,0-.6,0,3.87,3.87,0,0,0-3.86,3.86,3.83,3.83,0,0,0,1,2.56,3.87,3.87,0,0,0,2.88,1.3,3.87,3.87,0,0,0,3.87-3.86A3.79,3.79,0,0,0,74.51,96.43ZM37,40.36a3.86,3.86,0,0,0,3.8-3.21,3.49,3.49,0,0,0,.06-.65,3.94,3.94,0,0,0-.3-1.5,3.87,3.87,0,0,0-6.93-.39,3.81,3.81,0,0,0-.5,1.89,1.62,1.62,0,0,0,0,.22A3.85,3.85,0,0,0,37,40.36Z" transform="translate(-25.39 -18.64)"/></svg>