<svg id="Layer_1" data-name="Layer 1" xmlns="http://www.w3.org/2000/svg" viewBox="0 0 73.07 90"><defs><style>.cls-1{fill:#0c2244;}</style></defs><path class="cls-1" d="M274.15,423.29c.45-1.69,1.8-2.79,3-2.46s1.84,2,1.39,3.64-1.81,2.79-3,2.46S273.7,425,274.15,423.29Zm-3.5,3.64c1.21-.33,1.84-2,1.38-3.64s-1.8-2.79-3-2.47-1.84,2-1.39,3.65S269.43,427.26,270.65,426.93Zm-3.46.57c-.77-1.34-2.18-2-3.15-1.42s-1.12,2.1-.35,3.44,2.18,2,3.15,1.41S268,428.84,267.19,427.5Zm5.9.73c-2.34,0-6.53,3.41-6.53,7.62s2.93,1.09,6.53,1.09,6.53,3.12,6.53-1.09S275.43,428.23,273.09,428.23Zm5.9-.73c-.77,1.33-.62,2.87.35,3.43s2.38-.07,3.15-1.41.62-2.88-.35-3.44S279.76,426.16,279,427.5Zm19.27,1.91c9.59,10.44,13.81,20.41,9.94,25.69-1.7,2.33-4.75,3.44-8.72,3.44a37.53,37.53,0,0,1-11.7-2.27c-.57,1.93-1.21,3.74-1.89,5.41a4.25,4.25,0,0,0-1.94-.88,54.68,54.68,0,0,0,1.81-5.26,85.59,85.59,0,0,1-12.67-6.13,89.6,89.6,0,0,1-10,5.06c-.91.38-1.8.74-2.67,1.07,3,10.14,7.59,16.78,12.67,16.78,2.44,0,4.76-1.52,6.86-4.23a4.26,4.26,0,0,0,1.74,1.14c-2.55,3.31-5.47,5.18-8.6,5.18-6.1,0-11.41-7.07-14.69-18.14a37.53,37.53,0,0,1-11.7,2.27c-4,0-7-1.11-8.72-3.44-3.86-5.28.35-15.25,9.94-25.69C238.33,419,234.12,409,238,403.72a8.86,8.86,0,0,1,6.16-3.26,4.21,4.21,0,0,0-.4,1.81c0,.11,0,.21,0,.31a6.49,6.49,0,0,0-4.09,2.37c-3.18,4.34,1,13.4,9.71,22.92,1.75-1.83,3.67-3.66,5.74-5.47a92.34,92.34,0,0,1,2.72-17.82,46.9,46.9,0,0,0-5.4-1.54,3.87,3.87,0,0,0,.07-.77,4,4,0,0,0-.23-1.38,46.77,46.77,0,0,1,6.13,1.66c3.28-11.07,8.59-18.14,14.69-18.14s11.41,7.07,14.69,18.14c9.63-3.27,17.29-3.11,20.42,1.17C312.07,409,307.85,419,298.26,429.41Zm-7,0c0,1.37,0,2.72-.07,4.06,1.47-1.34,2.85-2.7,4.15-4.06-1.29-1.35-2.68-2.71-4.15-4.07C291.26,426.68,291.28,428,291.28,429.41Zm-2.24-6c-2.28-2-4.72-3.93-7.29-5.82-2.88-2.11-5.79-4-8.66-5.73-2.87,1.7-5.77,3.62-8.65,5.73-2.58,1.89-5,3.84-7.29,5.82-.12,2-.17,4-.17,6s0,4,.17,6c2.27,2,4.71,3.93,7.29,5.82,2.88,2.11,5.79,4,8.66,5.73,2.87-1.71,5.77-3.63,8.65-5.73,2.57-1.89,5-3.84,7.29-5.82.11-2,.16-4,.16-6S289.15,425.37,289,423.4Zm-.2-2.93a90.66,90.66,0,0,0-2.51-15.15,85.24,85.24,0,0,0-11.17,5.32c2.59,1.59,5.21,3.34,7.82,5.26C285,417.39,287,418.93,288.84,420.47Zm-28.42-17.19a84.14,84.14,0,0,1,12.67,6.13,85.23,85.23,0,0,1,12.67-6.14c-3-10.13-7.59-16.77-12.67-16.77S263.39,393.14,260.42,403.28Zm-3.08,17.18c1.86-1.53,3.81-3.07,5.86-4.56,2.61-1.92,5.23-3.67,7.81-5.26a85.15,85.15,0,0,0-11.16-5.32A90.53,90.53,0,0,0,257.34,420.46Zm-6.52,9c1.3,1.35,2.68,2.71,4.14,4.06,0-1.34-.07-2.69-.07-4.06s0-2.73.07-4.06C253.5,426.7,252.12,428.06,250.82,429.41Zm7,24.83a92.46,92.46,0,0,1-2.72-17.82c-2.07-1.81-4-3.64-5.74-5.47-8.69,9.52-12.89,18.57-9.71,22.92C242.22,457.38,249.13,457.24,257.83,454.24ZM271,448.17c-2.59-1.58-5.2-3.34-7.82-5.25q-3.07-2.25-5.85-4.57a89.68,89.68,0,0,0,2.5,15.15A82.87,82.87,0,0,0,271,448.17Zm15.31,5.32a89.72,89.72,0,0,0,2.5-15.14c-1.86,1.54-3.81,3.07-5.85,4.57-2.62,1.91-5.23,3.67-7.82,5.25A84.57,84.57,0,0,0,286.33,453.49ZM296.81,431c-1.76,1.83-3.68,3.66-5.74,5.48a93.14,93.14,0,0,1-2.72,17.8,35.94,35.94,0,0,0,11.22,2.26c3.21,0,5.65-.84,6.95-2.62C309.7,449.52,305.5,440.47,296.81,431Zm0-3.08c6.74-7.37,10.77-14.47,10.77-19.31a6,6,0,0,0-1.06-3.61c-1.31-1.79-3.74-2.63-6.95-2.63a36,36,0,0,0-11.22,2.26,93.12,93.12,0,0,1,2.72,17.82C293.13,424.21,295.05,426,296.81,427.87ZM285.67,462.2a3.64,3.64,0,0,0-1.93-.9,3,3,0,0,0-.6-.06,3.86,3.86,0,0,0-2.88,6.43,3.9,3.9,0,0,0,2.88,1.29A3.87,3.87,0,0,0,287,465.1,3.8,3.8,0,0,0,285.67,462.2Zm-37.54-56.07a3.87,3.87,0,0,0,3.8-3.21,3.42,3.42,0,0,0,.06-.65,4,4,0,0,0-.3-1.5,3.9,3.9,0,0,0-3.56-2.36,3.84,3.84,0,0,0-3.37,2,3.74,3.74,0,0,0-.5,1.88,1.77,1.77,0,0,0,0,.23A3.85,3.85,0,0,0,248.13,406.13Z" transform="translate(-236.55 -384.41)"/></svg>