<svg id="Layer_1" data-name="Layer 1" xmlns="http://www.w3.org/2000/svg" viewBox="0 0 65.05 90"><defs><style>.cls-1{fill:#0c2244;}</style></defs><path class="cls-1" d="M258.88,413.9a19.63,19.63,0,0,0-2.25-6.08h-.78c-7.93,0-14.48,1.81-19.55,5-4.6-8.46-9-15.79-11.23-19.53a1.9,1.9,0,0,0-1.61-.9,1.83,1.83,0,0,0-1.29.52,2,2,0,0,0-.31.38c-6.1,10.05-27.49,46.25-27.49,60a29.09,29.09,0,0,0,58.18,0c0-3-1-6.93-2.58-11.46C257.19,435.45,260.9,425.21,258.88,413.9Zm-9.72,39.38a25.7,25.7,0,0,1-51.39,0c0-9.85,13-35,25.69-56.12,3.42,5.7,6.87,11.69,10.07,17.6-8.54,7-11.6,18.45-8.42,31.16,2.87-9.68,11.79-15.48,15.46-17.49a16.88,16.88,0,0,1,1.58-.82,1.13,1.13,0,0,1,.95,2.05s-.61.29-1.55.82c-3.45,1.95-11.68,7.41-14.27,16.12a14,14,0,0,0-.44,1.72A28.82,28.82,0,0,0,247.16,444,31.76,31.76,0,0,1,249.16,453.28Z" transform="translate(-194.37 -392.36)"/><path class="cls-1" d="M226.84,448.32a75.08,75.08,0,0,0-10.22,13.91,1.13,1.13,0,0,1-2-1.05,66,66,0,0,1,10.49-15.26l.32,1.16a1.69,1.69,0,0,0,1.4,1.24Z" transform="translate(-194.37 -392.36)"/></svg>