<svg id="Layer_1" data-name="Layer 1" xmlns="http://www.w3.org/2000/svg" viewBox="0 0 65.05 90"><defs><style>.cls-1{fill:#0d2344;}</style></defs><path class="cls-1" d="M93.91,40.17a19.61,19.61,0,0,0-2.24-6.08h-.79c-7.92,0-14.48,1.82-19.54,5-4.6-8.46-9-15.8-11.24-19.53a1.88,1.88,0,0,0-2.89-.39,1.76,1.76,0,0,0-.32.39c-6.1,10-27.48,46.24-27.48,60a29.09,29.09,0,1,0,58.17,0c0-3-1-6.93-2.58-11.46C92.23,61.72,95.93,51.49,93.91,40.17ZM84.19,79.55a25.7,25.7,0,0,1-51.39,0c0-9.85,13-35,25.69-56.12,3.42,5.7,6.87,11.69,10.07,17.61C60,48,57,59.49,60.14,72.2,63,62.51,71.93,56.72,75.6,54.7c.89-.5,1.48-.77,1.59-.82a1.1,1.1,0,0,1,1.49.55,1.12,1.12,0,0,1-.55,1.5s-.61.29-1.55.82c-3.44,2-11.68,7.41-14.27,16.12a16,16,0,0,0-.44,1.72,28.77,28.77,0,0,0,20.32-4.33A31.82,31.82,0,0,1,84.19,79.55Z" transform="translate(-29.41 -18.64)"/><path class="cls-1" d="M61.87,74.59A75.08,75.08,0,0,0,51.65,88.5a1.12,1.12,0,0,1-1,.61,1.13,1.13,0,0,1-.53-.14,1.11,1.11,0,0,1-.46-1.52A66,66,0,0,1,60.14,72.2l.32,1.15a1.68,1.68,0,0,0,1.41,1.24Z" transform="translate(-29.41 -18.64)"/></svg>