<svg id="Layer_1" data-name="Layer 1" xmlns="http://www.w3.org/2000/svg" viewBox="0 0 81.11 88.08"><defs><style>.cls-1{fill:#0c2244;}</style></defs><path class="cls-1" d="M322.38,477.15l13.43-45.64,1.52.45a1.18,1.18,0,1,0,.67-2.27l-20.44-6a1.18,1.18,0,1,0-.68,2.27l1.52.45L305,472a9.07,9.07,0,0,0,17.41,5.12Zm-6-36.93.38-1.29,5.25,1.54a.81.81,0,0,0,.46-1.56l-5.25-1.55.75-2.57,5.25,1.54a.81.81,0,1,0,.47-1.56l-5.26-1.54,1.84-6.23,13.69,4L330,444.26Zm-1.77,3.15a.8.8,0,0,1,1-.55l5.24,1.54a.83.83,0,0,1,.56,1,.81.81,0,0,1-1,.55l-5.26-1.54A.8.8,0,0,1,314.58,443.37Zm4.57,6.7-5.25-1.55a.81.81,0,1,1,.47-1.56l5.24,1.54a.82.82,0,1,1-.46,1.57Z" transform="translate(-257.74 -395.58)"/><g id="lYNUJm.tif"><path class="cls-1" d="M272.22,396c3-.95,8.16.23,11.33.27q5.91.07,11.81,0c7.87,0,15.84-.66,23.69-.42a1.29,1.29,0,0,0-.76,1.88,9.76,9.76,0,0,1,.52,1.36,4.32,4.32,0,0,1-1,3c-1,1.52-2.63,3-2.63,4.65a9.23,9.23,0,0,1,1.34,2.77c.85,1,1.83,3.33-.34,3.72,1.26-.23-1.14,3.23-1.19,3.29-1.4,1.67-3.63,2.65-5.46,3.79a9.09,9.09,0,0,1-2,1c-.82.25-8.34.92-6.19,3.72.56,1.22-.94,2.45.28,3.62,1,1-1.1,1.8.38,2.6-.7,1.56-2.3,2.35-2.26,4.43a4.7,4.7,0,0,1-.05,1.3c-.28.92-1.36,1.34-1.89,2.15a6,6,0,0,0-.52,2.81c-.21,2.14-2.13,2.14-3.21,3.63-.79,1.11-1,2.52-1.62,3.77a20.15,20.15,0,0,0-2.26,10.32c-.51,3.3-.67,6.65-1.19,9.95-.21,1.33-.28,3.54-1.1,4.66-.33.47-2.17.34-1.72,1.42.53,1.29-1.25,2-.69,3.23.17.78-.13,1.7.67,2.25.69.27.18,1.67,1.15,1.26.46-.19.46-.19.66.21.49,1,.49,1-.65,1-8.05-.3-16.1-.47-24.15-.7-1.25.07-1.22-2.19-.89-2.92,1-8.89.54-18,1.21-27,.52-1.72-1.53-1.71-1.53-3.21-.21-.88-.52-.95-1.38-.86-1.43.16-1.43.16-1.85,1.53-.11.2,0,.57-.39.52-1.14-.25-.11-1.44-.6-2.15.75-2.34,2.84-4.14,1.81-6.64a31.24,31.24,0,0,1-1.72-9.75,9.73,9.73,0,0,1,1.43-5.16c2.44-2.14,2.51-2.69,1.66-5.74-.55-1,.38-1.88.81-2.71,1.52-2.71-1.65-4.85-2.43-7.09-.76-1.5.7-2.67.49-4.11s1.09-2.38.91-3.7c-.14-1-1.28-1.46-1.29-2.53,0-1.5,2.22-2.45,1-4.15C259,394.57,270.5,396.49,272.22,396Z" transform="translate(-257.74 -395.58)"/></g></svg>