<svg id="Layer_1" data-name="Layer 1" xmlns="http://www.w3.org/2000/svg" viewBox="0 0 80.51 90"><defs><style>.cls-1{fill:#0c2244;}</style></defs><path class="cls-1" d="M244.59,428.43c-18.31-.78-28.38,5.44-33.28,13.85-4.42-7.5-13.75-13.45-32.05-13.95a4.36,4.36,0,0,0-.46,0,7.34,7.34,0,0,0-1.25.11,7.2,7.2,0,0,0-.82.18,8,8,0,0,0-1.21.46l-.31.15a6.58,6.58,0,0,0-.63.38,6.85,6.85,0,0,0-1.51,1.37,8.35,8.35,0,0,0-.55.74,7.23,7.23,0,0,0-.55,1,2.37,2.37,0,0,0-.17.36c-.15.35-.28.71-.4,1.09a10.33,10.33,0,0,0-.32,1.22c-.09.43-.17.9-.23,1.39,0,0-1.17,17.95,9.73,29.28.44.45.89.9,1.37,1.33s1,.85,1.5,1.26,1.06.8,1.62,1.18,1.15.73,1.75,1.08l.93.51c.63.32,1.28.62,2,.92a33.48,33.48,0,0,0,3.21,1.17c.75.23,1.53.43,2.33.61a42.55,42.55,0,0,0,9.45,1,59.65,59.65,0,0,0,6.35-.36v0l0,0c24.72,3.43,40.42-12.3,40.24-36.65C251.46,433.86,249.12,429,244.59,428.43ZM204.71,472.2c-9.54,0-17-2.82-22.26-8.38-9.33-9.93-8.78-25.65-8.73-26.81.64-5.06,3.46-5.81,5.08-5.81h.38c14.66.4,24.51,4.42,29.3,12a22,22,0,0,1,1.25,2.27,34.45,34.45,0,0,0-2.14,16.84A26.09,26.09,0,0,0,193.15,452a1.44,1.44,0,0,0-.67,2.8,22.81,22.81,0,0,1,16.12,17.27C207.26,472.15,206,472.2,204.71,472.2Zm26.82-17.91a2.75,2.75,0,0,1-1.88,1.31c-6,1.26-14.4,7-15.73,16.19a1.4,1.4,0,0,1-2.09.95,1.11,1.11,0,0,1-.34-.22,1.28,1.28,0,0,1-.4-1.29c0-.23.07-.47.12-.7A19.63,19.63,0,0,1,214.3,463C220.67,453.53,233.54,450.66,231.53,454.29Z" transform="translate(-170.81 -385.2)"/><path class="cls-1" d="M240.36,396.73a12.09,12.09,0,0,0-10.21-5.33,15.1,15.1,0,0,0-7.51,2L220,395l-1.5-2.68c-1.91-3.42-6.39-7.12-11.71-7.12a12.27,12.27,0,0,0-5.33,1.25,13.43,13.43,0,0,0-7.09,8.13,14.14,14.14,0,0,0,1,11l13.3,23.84a2.89,2.89,0,0,0,1.79,1.38,2.57,2.57,0,0,0,.73.1,2.8,2.8,0,0,0,1.49-.42l23.43-14.13a14.08,14.08,0,0,0,6.34-9A13.41,13.41,0,0,0,240.36,396.73Zm-5.68,17.15L211.25,428l-13.31-23.85a11,11,0,0,1,4.78-15.12,9.43,9.43,0,0,1,4.09-1c4.47,0,8,3.42,9.19,5.64l3,5.27,5.17-3.12a12.25,12.25,0,0,1,6-1.59,9.18,9.18,0,0,1,7.85,4.09A10.94,10.94,0,0,1,234.68,413.88Z" transform="translate(-170.81 -385.2)"/></svg>