<svg id="Layer_1" data-name="Layer 1" xmlns="http://www.w3.org/2000/svg" viewBox="0 0 80.51 90"><defs><style>.cls-1{fill:#0d2344;}</style></defs><path class="cls-1" d="M95.45,61.87c-18.31-.78-28.38,5.44-33.28,13.85-4.42-7.5-13.75-13.45-32-13.95a4.36,4.36,0,0,0-.46,0,7.34,7.34,0,0,0-1.25.11,7.2,7.2,0,0,0-.82.18,8,8,0,0,0-1.21.46l-.31.15a6.58,6.58,0,0,0-.63.38,6.85,6.85,0,0,0-1.51,1.37,8.35,8.35,0,0,0-.55.74,7.23,7.23,0,0,0-.55,1,2.37,2.37,0,0,0-.17.36c-.15.35-.28.71-.4,1.09a10.33,10.33,0,0,0-.32,1.22c-.09.43-.17.9-.23,1.39,0,0-1.17,18,9.73,29.28.44.45.89.9,1.37,1.33s1,.85,1.5,1.26,1.06.8,1.62,1.18,1.15.73,1.75,1.08l.93.51c.63.32,1.28.62,2,.92a33.48,33.48,0,0,0,3.21,1.17c.75.23,1.53.43,2.33.61a42.55,42.55,0,0,0,9.45,1,59.65,59.65,0,0,0,6.35-.36v0s0,0,0,0c24.72,3.43,40.42-12.3,40.24-36.65C102.32,67.3,100,62.48,95.45,61.87ZM55.57,105.64c-9.54,0-17-2.82-22.26-8.38C24,87.33,24.53,71.61,24.58,70.45c.64-5.06,3.46-5.81,5.08-5.81H30c14.66.4,24.51,4.42,29.3,12a22,22,0,0,1,1.25,2.27,34.45,34.45,0,0,0-2.14,16.84A26.09,26.09,0,0,0,44,85.43a1.44,1.44,0,0,0-.67,2.8A22.81,22.81,0,0,1,59.46,105.5C58.12,105.59,56.82,105.64,55.57,105.64ZM82.39,87.73A2.75,2.75,0,0,1,80.51,89c-6,1.26-14.4,7-15.73,16.19a1.4,1.4,0,0,1-2.09,1,1.11,1.11,0,0,1-.34-.22,1.28,1.28,0,0,1-.4-1.29c0-.23.07-.47.12-.7a19.63,19.63,0,0,1,3.09-7.56C71.53,87,84.4,84.1,82.39,87.73Z" transform="translate(-21.68 -18.64)"/><path class="cls-1" d="M91.22,30.16A12.08,12.08,0,0,0,81,24.84a15.1,15.1,0,0,0-7.51,2l-2.62,1.58-1.5-2.67c-1.91-3.43-6.39-7.12-11.71-7.12a12.26,12.26,0,0,0-5.33,1.24A13.47,13.47,0,0,0,45.25,28a14.11,14.11,0,0,0,1,11l13.3,23.85a2.92,2.92,0,0,0,1.79,1.38,2.57,2.57,0,0,0,.73.1,2.89,2.89,0,0,0,1.49-.42L87,49.79a14.1,14.1,0,0,0,6.34-9A13.45,13.45,0,0,0,91.22,30.16ZM85.54,47.31,62.11,61.45,48.8,37.6a11,11,0,0,1,4.78-15.12,9.43,9.43,0,0,1,4.09-1c4.47,0,8,3.42,9.19,5.65l3,5.26L75,29.31a12.25,12.25,0,0,1,6-1.59,9.18,9.18,0,0,1,7.85,4.09A10.93,10.93,0,0,1,85.54,47.31Z" transform="translate(-21.68 -18.64)"/></svg>