<svg id="Layer_1" data-name="Layer 1" xmlns="http://www.w3.org/2000/svg" viewBox="0 0 90 90"><defs><style>.cls-1{fill:#0d2344;}</style></defs><path class="cls-1" d="M35,49.88l.7.36,1.22-2.37h0c.28.15.36,1.07-.35,2.44-.91,1.77-1.85,2.13-2.55,1.77s-1-1.46-.1-3.13,1.51-1.92,1.84-1.75l0,0,.67-1.3-.1-.06c-.86-.44-2.14,0-3.51,2.61s-.92,4.41.39,5.09,2.79.15,4.15-2.49c.82-1.59.84-2.62.39-3.16h0c.35.19.72.41.87.5l.59-1.16L37,46.06Z" transform="translate(-16.93 -18.64)"/><polygon class="cls-1" points="21.14 24.07 21.15 24.07 25.74 24.96 26.65 24.08 25.85 19.5 25.85 19.49 28.53 22.25 29.7 21.11 26.2 17.5 24.38 19.28 25.07 23.25 25.06 23.26 21.08 22.48 19.2 24.31 22.7 27.91 23.82 26.83 21.14 24.07"/><path class="cls-1" d="M51.42,37.57c2.59-1.2,3.71-2.82,3-4.3s-2.69-1.61-5.22-.44-3.7,2.84-3,4.27S48.83,38.77,51.42,37.57Zm-1.71-3.68c1.6-.75,2.86-.7,3.22.09s-.33,1.77-2,2.54-2.85.72-3.23-.12S48.11,34.63,49.71,33.89Z" transform="translate(-16.93 -18.64)"/><polygon class="cls-1" points="43.92 16.19 43.82 14.41 47.86 14.17 47.81 13.22 43.76 13.46 43.7 12.33 48.52 12.05 48.46 10.89 42 11.27 42.29 16.29 43.92 16.19"/><path class="cls-1" d="M68.26,33.13l3.07.64c1.18.24,1.17.58,1.09,1l-.21,1,1.6.33.22-1c.12-.59.06-1.12-1-1.5h0c1.07,0,1.43-.43,1.53-.91.18-.88-.45-1.62-2.67-2.08l-4.57-.95-1,4.92,1.6.33Zm.43-2,3,.61c1.07.22,1.41.51,1.34.88s-.56.53-1.59.31l-3-.61Z" transform="translate(-16.93 -18.64)"/><polygon class="cls-1" points="64.19 19.82 59.71 17.55 60.14 16.71 63.55 18.44 63.94 17.68 60.52 15.95 60.94 15.14 65.32 17.36 65.85 16.33 60.01 13.36 57.73 17.84 63.66 20.86 64.19 19.82"/><polygon class="cls-1" points="69.32 25.66 70.08 24.78 66.28 21.49 66.9 20.78 69.79 23.29 70.36 22.65 67.46 20.14 68.06 19.45 71.78 22.68 72.54 21.8 67.58 17.5 64.29 21.3 69.32 25.66"/><path class="cls-1" d="M86.61,50.56H80.72A21.87,21.87,0,0,0,61.4,62.49a1.46,1.46,0,0,0,.54,1.91,1.39,1.39,0,0,0,1.89-.56A19.13,19.13,0,0,1,80.73,53.4h4.45C84.51,63.09,77.05,71,67.7,71.82a1.43,1.43,0,0,0,.12,2.84H68c11.24-1,20-11,20-22.68A1.4,1.4,0,0,0,86.61,50.56Z" transform="translate(-16.93 -18.64)"/><path class="cls-1" d="M44.22,57.13H38.34A1.4,1.4,0,0,0,37,58.55c0,12.56,9.85,22.77,22,22.77h4.5v15a1.38,1.38,0,1,0,2.76,0V79.9C66.19,67.34,56.33,57.13,44.22,57.13Zm0,2.84c10.1,0,18.46,8.1,19.16,18.51H58.93c-10.1,0-18.46-8.1-19.16-18.51Z" transform="translate(-16.93 -18.64)"/><path class="cls-1" d="M61.93,18.64a45,45,0,1,0,45,45A45,45,0,0,0,61.93,18.64Zm42.28,45A42.28,42.28,0,1,1,61.93,21.36,42.33,42.33,0,0,1,104.21,63.64Z" transform="translate(-16.93 -18.64)"/></svg>