<svg id="Layer_1" data-name="Layer 1" xmlns="http://www.w3.org/2000/svg" viewBox="0 0 90 90"><defs><style>.cls-1{fill:#0c2244;}</style></defs><path class="cls-1" d="M239.33,381.56l.69.36,1.22-2.37h0c.28.15.36,1.07-.35,2.44-.91,1.78-1.85,2.14-2.55,1.77s-1-1.46-.1-3.13,1.51-1.92,1.84-1.75l0,0,.67-1.3-.1-.06c-.86-.44-2.14,0-3.5,2.61s-.93,4.41.38,5.09,2.79.15,4.15-2.48c.82-1.6.84-2.63.39-3.17h0c.35.19.72.41.87.5l.59-1.16-2.3-1.19Z" transform="translate(-221.27 -350.32)"/><polygon class="cls-1" points="21.14 24.07 21.15 24.07 25.74 24.96 26.65 24.08 25.85 19.5 25.85 19.49 28.53 22.25 29.7 21.11 26.2 17.5 24.38 19.28 25.07 23.25 25.06 23.26 21.08 22.48 19.2 24.31 22.7 27.91 23.82 26.83 21.14 24.07"/><path class="cls-1" d="M255.76,369.25c2.59-1.2,3.71-2.82,3-4.3s-2.69-1.6-5.22-.44-3.7,2.84-3,4.27S253.17,370.46,255.76,369.25Zm-1.71-3.68c1.6-.74,2.86-.7,3.23.09s-.34,1.77-2,2.54-2.85.72-3.23-.12S252.45,366.31,254.05,365.57Z" transform="translate(-221.27 -350.32)"/><polygon class="cls-1" points="43.92 16.19 43.82 14.41 47.86 14.17 47.81 13.22 43.76 13.46 43.7 12.33 48.52 12.05 48.46 10.89 42 11.27 42.29 16.29 43.92 16.19"/><path class="cls-1" d="M272.6,364.81l3.07.64c1.18.24,1.18.58,1.09,1l-.21,1,1.6.33.22-1c.12-.59.06-1.12-1-1.5h0c1.07,0,1.43-.42,1.53-.91.18-.88-.45-1.62-2.67-2.08l-4.57-.95-1,4.92,1.6.33Zm.43-2,3,.61c1.07.23,1.42.51,1.34.88s-.56.53-1.59.31l-3-.61Z" transform="translate(-221.27 -350.32)"/><polygon class="cls-1" points="64.19 19.82 59.71 17.55 60.14 16.71 63.55 18.44 63.94 17.68 60.52 15.95 60.94 15.14 65.32 17.36 65.85 16.33 60.01 13.36 57.73 17.84 63.66 20.86 64.19 19.82"/><polygon class="cls-1" points="69.32 25.66 70.08 24.78 66.28 21.49 66.9 20.78 69.79 23.29 70.36 22.65 67.46 20.14 68.06 19.45 71.78 22.68 72.54 21.8 67.58 17.5 64.29 21.3 69.32 25.66"/><path class="cls-1" d="M291,382.24h-5.88a21.87,21.87,0,0,0-19.33,11.93,1.45,1.45,0,0,0,.54,1.91,1.39,1.39,0,0,0,1.89-.56,19.12,19.12,0,0,1,16.9-10.43h4.45c-.67,9.68-8.13,17.57-17.48,18.41a1.41,1.41,0,0,0-1.25,1.54,1.39,1.39,0,0,0,1.37,1.3h.13c11.24-1,20-11,20-22.68A1.4,1.4,0,0,0,291,382.24Z" transform="translate(-221.27 -350.32)"/><path class="cls-1" d="M248.56,388.81h-5.88a1.4,1.4,0,0,0-1.38,1.42c0,12.56,9.85,22.77,22,22.77h4.5v15a1.38,1.38,0,1,0,2.76,0V411.58C270.53,399,260.67,388.81,248.56,388.81Zm0,2.84c10.1,0,18.46,8.1,19.16,18.51h-4.45c-10.1,0-18.45-8.1-19.16-18.51Z" transform="translate(-221.27 -350.32)"/><path class="cls-1" d="M266.27,350.32a45,45,0,1,0,45,45A45.05,45.05,0,0,0,266.27,350.32Zm42.28,45A42.28,42.28,0,1,1,266.27,353,42.33,42.33,0,0,1,308.55,395.32Z" transform="translate(-221.27 -350.32)"/></svg>