<svg id="Layer_1" data-name="Layer 1" xmlns="http://www.w3.org/2000/svg" viewBox="0 0 89.48 39.63"><defs><style>.cls-1{fill:#0c2244;}</style></defs><path class="cls-1" d="M321.89,439.28l2.48-.42a1.68,1.68,0,0,0,1.39-1.95L324.09,427a1.69,1.69,0,0,0-2-1.38l-84.41,14.25a1.69,1.69,0,0,0-1.39,2l1.68,9.93a1.7,1.7,0,0,0,2,1.39l2.49-.42,1.09,6.46a6.32,6.32,0,0,0,6,5.26l21.94.77a6,6,0,0,0,1.28-.08,6.34,6.34,0,0,0,5.11-4.84l2.69-11.94a2.09,2.09,0,0,1,3.68-.67l6.9,10.53a6.32,6.32,0,0,0,6.33,2.76,6.18,6.18,0,0,0,1.24-.34l20.34-7.92a6.32,6.32,0,0,0,3.93-6.94ZM245.67,458.8l-2.38-14.12a1.12,1.12,0,0,1,.92-1.29l2-.33,3.24,19.17A4.15,4.15,0,0,1,245.67,458.8Zm52.25-.21a4.66,4.66,0,0,1-.81.23A4.15,4.15,0,0,1,293,457l-6.9-10.52,0-.05,0-.05a4.2,4.2,0,0,0-4.12-1.67,4.27,4.27,0,0,0-3.38,3l0,.06v.06l-2.7,11.94A4.13,4.13,0,0,1,272.4,463a3.91,3.91,0,0,1-.84.06l-19.92-.7-3.32-19.64,64.78-10.94,3.31,19.64Zm20.55-8-3.24-19.17,1.93-.32a1.12,1.12,0,0,1,1.3.92l2.38,14.12A4.14,4.14,0,0,1,318.47,450.56Z" transform="translate(-236.3 -425.56)"/><rect class="cls-1" x="295.8" y="443.48" width="15.95" height="2.17" rx="1.08" transform="translate(-467.39 80.9) rotate(-62.26)"/><rect class="cls-1" x="296.45" y="441.73" width="6.27" height="2.17" rx="1.08" transform="translate(-469.85 57.25) rotate(-60.21)"/></svg>