<svg id="Layer_1" data-name="Layer 1" xmlns="http://www.w3.org/2000/svg" viewBox="0 0 83.18 90"><defs><style>.cls-1{fill:#0c2244;}</style></defs><path class="cls-1" d="M312.27,382.34a34.4,34.4,0,1,1-6.47-5.27l1.8-2.26a37.24,37.24,0,1,0,6.48,5.27Z" transform="translate(-250.31 -353.35)"/><path class="cls-1" d="M301.5,382.44a27,27,0,1,0,6.37,5.39l-1.82,2.28a24.16,24.16,0,1,1-6.36-5.4Z" transform="translate(-250.31 -353.35)"/><path class="cls-1" d="M287.51,393.33a13,13,0,0,1,4.61.83l1.87-2.34a16.12,16.12,0,1,0,6.52,5.21l-1.87,2.34a13.26,13.26,0,1,1-24.39,7.22A13.28,13.28,0,0,1,287.51,393.33Z" transform="translate(-250.31 -353.35)"/><path class="cls-1" d="M312,373.68l-24.68,31.07a1.31,1.31,0,1,0,2.05,1.63l24.86-30.89,2.93.75L324,378a.75.75,0,0,0,.78-.25l8.53-10.22a.77.77,0,0,0-.4-1.24l-11-2.8-4.91-9.7a.77.77,0,0,0-1.28-.14l-8.21,10.23a.78.78,0,0,0-.09.83l3.21,6.33Zm11.44,1.21-4.32-1.11-2.87-.73,5.42-6.5.13-.16,7.19,1.84ZM310.6,364.6l5.33-6.64,3.36,6.64,0,0L314,371.24l-1.36-2.68Z" transform="translate(-250.31 -353.35)"/></svg>