<svg id="Layer_1" data-name="Layer 1" xmlns="http://www.w3.org/2000/svg" viewBox="0 0 90 74.81"><defs><style>.cls-1{fill:#0c2244;}</style></defs><path class="cls-1" d="M318.75,407.3a1.73,1.73,0,0,0-1.62,1.83c0,12.49-9,22.66-20.08,22.66a17.88,17.88,0,0,1-5.33-.82,1.19,1.19,0,0,0-.76-.28h0c-7.18-2.61-12.61-9.67-13.72-18.29l15.26-17.85c3.39-4,4.09-11.49-.68-16.08s-10.58-1.25-12.62,1.14L275.37,384l-3.78-4.41c-2.08-2.43-7.78-5.82-12.62-1.14s-4.08,12.13-.69,16.08l15.26,17.78c-1.38,11-9.76,19.46-19.87,19.46-11.07,0-20.07-10.17-20.07-22.66a1.63,1.63,0,1,0-3.24,0c0,14.51,10.46,26.31,23.31,26.31a21,21,0,0,0,5.5-.74c1.28,8.53,8.8,16.24,16.44,16.24s15.09-7.63,16.43-16.12a20.83,20.83,0,0,0,5,.62c12.86,0,23.31-11.8,23.31-26.31A1.73,1.73,0,0,0,318.75,407.3ZM275.61,448c-6.59,0-13.06-6.79-13.94-14.18a24.55,24.55,0,0,0,12.65-12.52v18.44a1.3,1.3,0,1,0,2.59,0V422.33A24.24,24.24,0,0,0,289.53,434C288.56,441.34,282.15,448,275.61,448Z" transform="translate(-230.36 -376.13)"/></svg>