<?xml version="1.0" encoding="utf-8"?>
<!-- Generator: Adobe Illustrator 19.2.1, SVG Export Plug-In . SVG Version: 6.00 Build 0)  -->
<svg version="1.1" id="layer" xmlns="http://www.w3.org/2000/svg" xmlns:xlink="http://www.w3.org/1999/xlink" x="0px" y="0px"
	 viewBox="0 0 652 652" style="enable-background:new 0 0 652 652;" xml:space="preserve">
<style type="text/css">
	.st0{fill:#2E58FF;}
	.st1{fill:#FFFFFF;}
	.st2{fill:#0C0C0C;}
	.st3{fill:#FFA817;}
	.st4{fill:#A92823;}
	.st5{fill:#E83932;}
	.st6{fill:#3059FF;}
</style>
<rect x="26" y="176" class="st0" width="600" height="300"/>
<path class="st1" d="M370.6,306h-6.9v9.5H393V306h-4.8v-19.4c0-5.9,3.5-10.5,8-10.5c2,0,3.4,0.5,4.4,1.6c1.5,1.5,2.1,3.7,2.1,6.9
	V306h-5v9.5h29.4V306h-6.8v-22.9c0-10.3-4.1-18.2-15.8-18.2c-8.3,0-13.3,5-16.4,11.8v-33.4h-24.5v9.5h6.9L370.6,306L370.6,306z
	 M454.9,316.7c15.1,0,21.6-7.3,23.2-17.6h-9.4c-1.9,5.9-5.3,8.3-11.1,8.3c-7.3,0-11.5-2.9-12.2-14.1h33.3
	c0.9-17.2-7.4-28.3-24.8-28.3c-15.2,0-26.6,11.2-26.6,26.3C427.3,306.8,437.9,316.7,454.9,316.7z M453.7,272.7c4.9,0,7.5,3,8,13.5
	h-16.3C445.9,275.9,448.9,272.7,453.7,272.7z M373.6,323.5h-25v9.5h7.4v20.5c-3-5-7.8-8.3-14.8-8.3c-5.1,0-9.5,1.9-12.7,5.1
	c-4.4,4.4-7,11.5-7,20.8c0,8.7,2.2,16.2,6.7,20.7c3.1,3.1,7.1,5.1,12.5,5.1c8.7,0,13.9-4.9,16.6-11.5v10.5h23.3v-9.5h-6.9V323.5z
	 M348.3,386.8c-6.1,0-8.1-5.1-8.1-15.1c0-10.6,2.2-16.2,8.1-16.2c6.2,0,8.9,6.7,8.9,15.7C357.2,379.8,354.2,386.8,348.3,386.8z
	 M408.5,345.2c-15.4,0-27.5,10.8-27.5,26.1c0,15.4,11.5,25.6,27.5,25.6c15.4,0,27.5-10.8,27.5-26.1
	C436,355.5,424.4,345.2,408.5,345.2z M408.7,389.2c-6.1,0-8.6-4.8-8.6-18c0-13.1,2.1-18.2,8-18.2c6.1,0,8.6,4.8,8.6,18
	C416.8,384.2,414.7,389.2,408.7,389.2z M491.1,323.5h-25v9.5h7.4v20.5c-3-5-7.8-8.3-14.8-8.3c-5.1,0-9.5,1.9-12.7,5.1
	c-4.4,4.4-7,11.5-7,20.8c0,8.7,2.2,16.2,6.7,20.7c3.1,3.1,7.1,5.1,12.5,5.1c8.7,0,13.9-4.9,16.6-11.5v10.5h23.3v-9.5h-6.9V323.5z
	 M465.8,386.8c-6.1,0-8.1-5.1-8.1-15.1c0-10.6,2.2-16.2,8.1-16.2c6.2,0,8.9,6.7,8.9,15.7C474.7,379.8,471.7,386.8,465.8,386.8z
	 M525.5,345.2c-15.4,0-27.5,10.8-27.5,26.1c0,15.4,11.5,25.6,27.5,25.6c15.4,0,27.5-10.8,27.5-26.1
	C552.9,355.5,541.3,345.2,525.5,345.2z M525.7,389.2c-6.1,0-8.6-4.8-8.6-18c0-13.1,2.1-18.2,8-18.2c6.1,0,8.6,4.8,8.6,18
	C533.7,384.2,531.6,389.2,525.7,389.2z M349.9,305.8c-3.2,0-4.8-2.6-4.8-7v-23.2h15.7v-9h-15.7v-15l-17.1,3.7v11.2h-8.8v9h8.3v22.5
	c0,12.6,5.6,18.5,17.3,18.5c10.1,0,15.1-4.8,17.5-15.4l-7.1-1.8C353.9,304.1,352.6,305.8,349.9,305.8z M277.7,325.5
	c0-51.7-41.9-93.6-93.6-93.6c-51.7,0.1-93.6,41.9-93.6,93.6c0,21.5,7.3,41.2,19.4,57c9.8-2.6,19.8-4.1,29.8-4.4l-4.6-9.8
	c0,0-16-27.8-18.8-48.1c-0.4-2.7-0.6-5.3-0.6-8.1c0-27.7,22.5-50.2,50.2-50.2c10.5,0,20.4,3.4,28.6,8.8l40.8,32.1
	c0.5-0.1,0.9-0.2,1.4-0.2c0.4,0,0.8,0,1.2-0.1c0.3,0,0.7-0.1,1-0.1h0.3c0.4,0,0.9,0,1.2,0.1c0.5,0,0.9,0.1,1.3,0.1
	c0.2,0,0.5,0.1,0.8,0.2c0.6,0.1,1.2,0.2,1.8,0.3c0.2,0,0.2,0.1,0.4,0.1c0.7,0.2,1.4,0.4,2.1,0.6h0.1c0.1,0,0.2,0.1,0.3,0.2
	c1.7,0.6,3.4,1.4,4.9,2.3c0.1,0.1,0.2,0.2,0.3,0.2c0.5,0.3,0.9,0.6,1.3,0.9c0.2,0.2,0.3,0.2,0.5,0.4l1.2,0.9
	c0.2,0.2,0.4,0.3,0.5,0.5c0.3,0.3,0.7,0.6,1,0.9c0.2,0.2,0.4,0.4,0.5,0.6c3.2,3.5,5.4,7.9,6.2,12.8v0.2c0.1,0.6,0.2,1.2,0.2,2v0.8
	c0,0.4,0.1,0.9,0.1,1.2v0.5c0,0.5,0,1.1-0.1,1.6v0.3c0,0.4-0.1,0.8-0.2,1.2v0.1c-0.1,0.5-0.2,1.1-0.3,1.6v0.2
	c-0.6,2.7-1.7,5.5-3.2,7.8c-0.1,0.1-0.2,0.2-0.2,0.3c-1.2,1.7-2.7,3.1-4.3,4.1c-1.2,0.6-2.5,1.3-3.7,0.5c-0.9-0.6-1.4-1.6-2-2.4
	c-0.5-0.5-0.9-1-1.4-1.5c-5.4,5.2-13.3,7.4-21,4.8c-3.4-1.2-6.3-3.1-8.6-5.6c-2.4,0.5-25.5,5.4-30.3,6.3c6.1,5.1,11.6,10.8,16.6,17
	c10.3,12.6,18,27.4,22.6,43.5C257.4,392.5,277.7,361.4,277.7,325.5z"/>
<path class="st2" d="M160,415.9c9.9-21.1,25.7-38.8,45.2-51.1c-5-6.2-10.5-11.9-16.6-17c-0.4,0.1-0.7,0.2-0.8,0.2h-0.2
	c-1.7,0.2-3.5,0.4-5.3,0.4h-1.8c-21.1-0.9-37.8-18.3-37.8-39.6c0-21.1,16.5-38.4,37.3-39.6h4.3c0.2,0,0.5,0,0.6,0.1
	c0.3,0,0.7,0.1,1,0.1c0.6,0.1,1.3,0.2,2,0.2c0.2,0,0.5,0.1,0.8,0.1c0.8,0.1,1.5,0.2,2.2,0.4c0.2,0,0.3,0.1,0.4,0.1
	c1.1,0.2,2.2,0.5,3.3,0.9c-8-5.5-18-8.8-28.6-8.8c-27.7,0-50.2,22.5-50.2,50.2c0,2.7,0.2,5.5,0.6,8.1c2.8,20.4,18.8,48.1,18.8,48.1
	l4.6,9.8c-10,0.3-20,1.8-29.8,4.4C122.3,398.6,139.8,410.5,160,415.9z"/>
<path class="st3" d="M190.7,269.9c-0.7-0.2-1.5-0.3-2.2-0.4c-0.2-0.1-0.5-0.1-0.8-0.1c-0.6-0.1-1.2-0.2-2-0.2c-0.3,0-0.7-0.1-1-0.1
	c-0.2,0-0.5-0.1-0.6-0.1h-4.3c-20.8,1.2-37.3,18.5-37.3,39.6c0,21.3,16.8,38.7,37.8,39.6h1.8c1.8,0,3.6-0.2,5.3-0.4h0.2
	c0.2,0,0.4-0.1,0.8-0.2c4.8-0.9,27.9-5.8,30.3-6.3c-3.6-4-5.6-9.3-5.3-14.7v-0.1c0.1-2,0.5-3.9,1-5.9c0-0.1,0.1-0.2,0.1-0.2l0.2-0.7
	c0.1-0.2,0.2-0.5,0.3-0.8c0.2-0.3,0.2-0.6,0.4-0.9c0.2-0.5,0.4-0.9,0.6-1.3c0.2-0.3,0.3-0.5,0.4-0.8c0.2-0.5,0.5-0.9,0.8-1.3
	c0.2-0.2,0.2-0.4,0.4-0.6c0.3-0.5,0.6-0.9,0.9-1.3c0.1-0.2,0.2-0.3,0.4-0.5c0.4-0.5,0.8-0.9,1.2-1.3l0.3-0.3
	c0.4-0.5,0.9-0.9,1.3-1.3c0.2-0.1,0.2-0.2,0.4-0.3l1.4-1.2c1.2-0.9,2.6-1.8,4-2.5h0.1l2.1-0.9c0.1,0,0.2-0.1,0.3-0.1
	c0.6-0.2,1.3-0.5,2-0.6c0.2-0.1,0.4-0.1,0.6-0.2c0.5-0.2,1.1-0.3,1.7-0.4c0.3-0.1,0.6-0.1,0.9-0.2h0.1l-40.8-32.1
	c-1.1-0.3-2.2-0.6-3.3-0.9C191,270,190.8,269.9,190.7,269.9z M196.6,301.8c0,4.5-2.9,8.4-6.9,9.8c-1.1,0.4-2.3,0.6-3.6,0.6
	c-5.8,0-10.5-4.7-10.5-10.5c0-5.8,4.7-10.5,10.5-10.5c2.3,0,4.3,0.7,6,1.9C194.8,295.1,196.6,298.2,196.6,301.8z"/>
<path class="st1" d="M175.6,301.8c0,5.8,4.7,10.5,10.5,10.5c1.2,0,2.5-0.2,3.6-0.6c4.1-1.5,6.9-5.3,6.9-9.8c0-3.6-1.8-6.7-4.5-8.7
	c-1.7-1.2-3.7-1.9-6-1.9C180.3,291.2,175.6,296,175.6,301.8z M191.5,297.7c1.6,0.9,2.7,2.7,2.7,4.7c0,2.5-1.6,4.6-3.9,5.2
	c-0.5,0.2-1,0.2-1.6,0.2c-3,0-5.5-2.5-5.5-5.5s2.5-5.5,5.5-5.5C189.7,296.9,190.7,297.2,191.5,297.7z"/>
<path d="M183.2,302.4c0,3,2.5,5.5,5.5,5.5c0.5,0,1.1-0.1,1.6-0.2c2.3-0.7,3.9-2.7,3.9-5.2c0-2-1.1-3.7-2.7-4.7
	c-0.9-0.5-1.8-0.9-2.9-0.9C185.6,296.9,183.2,299.4,183.2,302.4z"/>
<path class="st4" d="M241.6,339.4c-2.6-0.8-5.1-1.7-7.6-2.6c-3.6-1.2-7.2-2.5-10.7-4.1c-2.7-1.2-5.2-2.5-7.6-4.1
	c-0.6-0.5-1.2-0.9-1.8-1.5l-0.4-0.4c-0.2,5.5,1.7,10.8,5.3,14.7c2.3,2.5,5.2,4.4,8.6,5.6c7.6,2.6,15.6,0.4,21-4.8
	c-0.1-0.1-0.2-0.2-0.3-0.2C246.2,340.6,243.9,340.1,241.6,339.4z"/>
<path class="st5" d="M234.2,303.1c-0.5,0.1-1.2,0.2-1.7,0.4c-0.2,0.1-0.4,0.1-0.6,0.2c-0.7,0.2-1.3,0.4-2,0.6
	c-0.1,0-0.2,0.1-0.3,0.1c-0.7,0.3-1.4,0.5-2.1,0.9h-0.1c-1.4,0.7-2.7,1.6-4,2.5L222,309c-0.2,0.1-0.2,0.2-0.4,0.3
	c-0.5,0.4-0.9,0.9-1.3,1.3l-0.3,0.3c-0.4,0.5-0.8,0.9-1.2,1.3c-0.2,0.2-0.2,0.3-0.4,0.5c-0.3,0.5-0.6,0.9-0.9,1.3
	c-0.2,0.2-0.2,0.4-0.4,0.6c-0.2,0.5-0.5,0.9-0.8,1.3c-0.2,0.2-0.3,0.5-0.4,0.8c-0.2,0.4-0.4,0.9-0.6,1.3c-0.2,0.3-0.2,0.6-0.4,0.9
	c-0.1,0.2-0.2,0.5-0.3,0.8l-0.2,0.7c0,0.1-0.1,0.2-0.1,0.2c-0.5,2-0.9,3.9-1,5.9v0.1c0.1,0.2,0.4,0.4,0.4,0.4c0.5,0.5,1.2,1,1.8,1.5
	c2.4,1.6,5,3,7.6,4.1c3.5,1.6,7.1,2.8,10.7,4.1c2.5,0.9,5.1,1.8,7.6,2.6c2.3,0.7,4.6,1.2,6.5,2.7c0.1,0.1,0.2,0.2,0.3,0.2
	c0.5,0.5,1,0.9,1.4,1.5c0.6,0.8,1.2,1.8,2,2.4c1.2,0.9,2.6,0.2,3.7-0.5c1.7-0.9,3.1-2.3,4.3-4.1c0.1-0.1,0.2-0.2,0.2-0.3
	c1.6-2.3,2.6-5.1,3.2-7.8v-0.2c0.2-0.5,0.2-1.1,0.3-1.6v-0.1c0.1-0.4,0.1-0.8,0.2-1.2v-0.3c0.1-0.5,0.1-1.1,0.1-1.6v-0.5
	c0-0.4-0.1-0.9-0.1-1.2v-0.8c-0.1-0.6-0.2-1.3-0.2-2v-0.2c-0.8-4.8-3-9.3-6.2-12.8c-0.2-0.2-0.4-0.4-0.5-0.6c-0.3-0.3-0.7-0.6-1-0.9
	c-0.2-0.2-0.4-0.3-0.5-0.5l-1.2-0.9c-0.2-0.2-0.3-0.2-0.5-0.4c-0.4-0.3-0.9-0.6-1.3-0.9c-0.1-0.1-0.2-0.2-0.3-0.2
	c-1.6-0.9-3.2-1.7-4.9-2.3c-0.1,0-0.2-0.1-0.3-0.2h-0.1c-0.7-0.2-1.4-0.5-2.1-0.6c-0.2,0-0.2-0.1-0.4-0.1c-0.6-0.2-1.2-0.2-1.8-0.3
	c-0.2-0.1-0.5-0.1-0.8-0.2c-0.5-0.1-0.9-0.1-1.3-0.1s-0.9-0.1-1.2-0.1h-0.3c-0.3,0-0.7,0-1,0.1c-0.4,0-0.8,0-1.2,0.1
	c-0.5,0.1-0.9,0.1-1.4,0.2h-0.1C234.8,303,234.5,303,234.2,303.1z"/>
<path class="st6" d="M205.2,364.7c-19.5,12.3-35.3,30.1-45.2,51.1c7.7,2,15.8,3.1,24.1,3.1c15.8,0,30.7-3.9,43.7-10.8
	C223.2,392.1,215.5,377.4,205.2,364.7z"/>
</svg>
