<svg width="402" height="509" viewBox="0 0 402 509" fill="none" xmlns="http://www.w3.org/2000/svg">
<path d="M259 341C268.389 341 276 333.389 276 324C276 314.611 268.389 307 259 307C249.611 307 242 314.611 242 324C242 333.389 249.611 341 259 341Z" stroke="#022044" stroke-width="16"/>
<path d="M394 367.5V500.5H8V367.5C8 345.035 19.3213 330.408 28.4245 320.376C39.5787 308.084 59.3932 296.143 82.1689 284.641C93.4159 278.961 105.119 273.513 116.487 268.263C117.662 267.72 118.833 267.18 120.001 266.641C127.998 262.95 135.802 259.349 143.029 255.866C150.683 263.867 160.034 270.258 169.496 274.848C180.745 280.304 192.744 283.5 203 283.5C211.512 283.5 221.999 279.402 231.865 273.935C240.563 269.116 249.652 262.739 257.871 255.556C274 263.425 296.887 275.017 318.396 286.792C342.515 299.997 363.844 312.876 372.594 320.897C389.68 336.559 394 358.862 394 367.5Z" stroke="#022044" stroke-width="16"/>
<path d="M58 293L93 367.5V499.5" stroke="#022044" stroke-width="16"/>
<path d="M78 287.002V114.502C83.6667 78.835 116.7 7.60168 203.5 8.00168C290.3 8.40168 319.333 79.1683 323 114.502V287.002" stroke="#022044" stroke-width="16"/>
<path d="M145.988 258C136.821 249.5 117.588 226.4 113.988 202C110.388 177.6 112.488 147.5 113.988 135.5C112.155 130.167 118.788 120.1 159.988 122.5C201.188 124.9 216.488 89.1667 218.988 71L285.988 122.5C290.988 135.5 290.977 171 285.988 193.5C281 216 268.012 239 255.5 258" stroke="#022044" stroke-width="16"/>
<path d="M259 258V310" stroke="#022044" stroke-width="16"/>
<path d="M146 261V313" stroke="#022044" stroke-width="16"/>
<path d="M134.5 396H120V341C120 320.5 136.2 307 145 307" stroke="#022044" stroke-width="16"/>
<path d="M155.5 396H170V341C170 320.5 153.8 307 145 307" stroke="#022044" stroke-width="16"/>
<path d="M183 426.713H202.5L264 364.713C282.833 362.379 321.8 360.613 327 372.213V393.213L362 426.713C368.5 433.713 371 453.213 356 461.713C342.333 461.713 310.6 461.713 303 461.713C301 461.713 294 465.713 291 469.713C288.6 472.913 272 490.713 264 499.213" stroke="#022044" stroke-width="16"/>
<path d="M243 383V418.5C243 440.5 290 442 290 418.5V363" stroke="#022044" stroke-width="16"/>
</svg>
