<?xml version="1.0" encoding="UTF-8" standalone="no"?>
<svg
   xmlns:dc="http://purl.org/dc/elements/1.1/"
   xmlns:cc="http://creativecommons.org/ns#"
   xmlns:rdf="http://www.w3.org/1999/02/22-rdf-syntax-ns#"
   xmlns:svg="http://www.w3.org/2000/svg"
   xmlns="http://www.w3.org/2000/svg"
   xmlns:sodipodi="http://sodipodi.sourceforge.net/DTD/sodipodi-0.dtd"
   xmlns:inkscape="http://www.inkscape.org/namespaces/inkscape"
   sodipodi:docname="NBC_4_New_York.svg"
   inkscape:version="1.0 (4035a4f, 2020-05-01)"
   version="1.1"
   id="svg3031"
   height="639.03766"
   width="1000">
  <defs
     id="defs3033" />
  <sodipodi:namedview
     inkscape:pagecheckerboard="true"
     inkscape:document-rotation="0"
     inkscape:window-maximized="0"
     inkscape:window-y="0"
     inkscape:window-x="0"
     inkscape:window-height="900"
     inkscape:window-width="1440"
     fit-margin-bottom="0"
     fit-margin-right="0"
     fit-margin-left="0"
     fit-margin-top="0"
     showgrid="false"
     inkscape:current-layer="layer1"
     inkscape:document-units="px"
     inkscape:cy="306.82613"
     inkscape:cx="485.62211"
     inkscape:zoom="0.76566406"
     inkscape:pageshadow="2"
     inkscape:pageopacity="0.0"
     borderopacity="1.0"
     bordercolor="#666666"
     pagecolor="#ffffff"
     id="base" />
  <metadata
     id="metadata3036">
    <rdf:RDF>
      <cc:Work
         rdf:about="">
        <dc:format>image/svg+xml</dc:format>
        <dc:type
           rdf:resource="http://purl.org/dc/dcmitype/StillImage" />
        <dc:title></dc:title>
      </cc:Work>
    </rdf:RDF>
  </metadata>
  <g
     transform="translate(200.03586,-40.933463)"
     id="layer1"
     inkscape:groupmode="layer"
     inkscape:label="Layer 1">
    <g
       transform="matrix(1.6053197,0,0,1.6053197,-219.2997,25.522394)"
       id="g5">
      <path
         style="fill:#ffffff"
         inkscape:connector-curvature="0"
         id="path7"
         d="m 461.9,152 c -5.4,-13.3 -18.5,-27.7 -43.2,-25.7 -31.4,3.4 -41.1,33 -36.4,50.8 -12.5,-8.4 -33.7,-12 -52.3,3.7 -23.9,23.7 -11.1,55.7 2,63.4 -14.5,-1.3 -37.4,8.4 -42.5,33.7 -5.4,31.4 18.9,49.8 42.5,49.8 h 262 c 27.3,0 42.5,-23.3 40.8,-45.4 -2.7,-28.7 -29.3,-39.7 -43.8,-37.4 12.1,-6.7 28.3,-38.1 3.7,-62.8 -19.6,-18.4 -44.5,-11.7 -53.3,-3.7 4.7,-15.3 -3,-47.1 -34.7,-52.1 -2.2,-0.2 -4.3,-0.4 -6.3,-0.4 -24.2,0 -35.1,17.5 -38.5,26.1" />
      <path
         style="fill:#f37021;fill-opacity:1"
         inkscape:connector-curvature="0"
         id="path9"
         d="m 334.4,185.7 c -13.8,12.4 -18.9,40.4 6.1,56.8 L 440,309.9 391.8,200.8 C 381.6,175 354,169.4 334.4,185.7" />
      <path
         style="fill:#cc004c;fill-opacity:1"
         inkscape:connector-curvature="0"
         id="path11"
         d="m 420.1,132.6 c -16.2,0.3 -40.5,19.3 -29.6,48.4 L 440.4,297.2 457.8,175 c 4.1,-30.4 -19.2,-44.4 -37.7,-42.4" />
      <path
         style="fill:#6460aa;fill-opacity:1"
         inkscape:connector-curvature="0"
         id="path13"
         d="m 465.6,170.3 h 9.4 c 0,0 5,0 5.7,2.3 -3.7,3 -13.8,3.4 -12.5,19.4 l 15.9,105.1 49.5,-116.5 c 10.1,-26 -11.1,-47.7 -30,-48.4 -0.9,-0.1 -1.8,-0.1 -2.7,-0.1 -16.8,0.1 -36.2,12.2 -35.3,38.2" />
      <path
         style="fill:#0089d0;fill-opacity:1"
         inkscape:connector-curvature="0"
         id="path15"
         d="m 531.7,201.7 -46.9,107.8 99.5,-67.7 c 22.9,-16.1 19.2,-41.7 6.4,-54.4 -5.4,-6 -15.3,-10.6 -25.7,-10.6 -12.4,0 -25.6,6.5 -33.3,24.9" />
      <path
         style="fill:#0db14b;fill-opacity:1"
         inkscape:connector-curvature="0"
         id="path17"
         d="m 573.2,257.1 -93.4,64.4 h 115 c 23.6,0 38.8,-24 32,-46.1 -4.5,-13.9 -17.9,-24.7 -33.4,-24.7 -6.5,0 -13.4,2 -20.2,6.4" />
      <path
         style="fill:#fcb711;fill-opacity:1"
         inkscape:connector-curvature="0"
         id="path19"
         d="M 331.7,321.5 H 445 l -93.4,-64.4 c -21.6,-13.7 -45.9,-5.7 -54.6,17 -7.4,26.1 11.1,47.4 34.7,47.4" />
    </g>
    <g
       style="fill:#0260aa;fill-opacity:1"
       transform="matrix(1.6053197,0,0,1.6053197,-219.2997,25.522394)"
       id="_x34_">
      <path
         style="fill:#0260aa;fill-opacity:1"
         inkscape:connector-curvature="0"
         id="path22"
         d="M 255.5,190.5 V 9.6 H 155 L 13.2,191.5 v 77 l 152.8,0.2 v 52.9 h 89.7 v -53.7 h 30.8 l 8.9,-77.2 z m -90.7,-2 H 115 l 49.8,-68 z" />
    </g>
    <polyline
       style="fill:#0260aa;fill-opacity:1"
       transform="matrix(1.6053197,0,0,1.6053197,-219.2997,25.522394)"
       points="12,405.5 12,342 27.5,342 72.3,389.5 72.3,342 84.8,342 84.8,405.5 69.3,405.5 25.8,359.3   25.8,405.5 "
       id="N" />
    <polyline
       style="fill:#0260aa;fill-opacity:1"
       transform="matrix(1.6053197,0,0,1.6053197,-219.2997,25.522394)"
       points="93.8,342 158.3,342 158.3,353.5 106.3,353.5 106.3,366.5 142.5,366.5 142.3,378 106.3,378   106.3,394.3 160,394.3 160,405.5 93.8,405.5 "
       id="E" />
    <polygon
       style="fill:#0260aa;fill-opacity:1"
       transform="matrix(1.6053197,0,0,1.6053197,-219.2997,25.522394)"
       points="265.3,342.3 250.8,342.3 237,388 222.8,342.3 207.5,342.3 193.3,388 178.8,342.3 164.8,342.3 185.5,405.8 201.3,405.8 215,359.5 229.3,405.8 244.8,405.8 "
       id="W" />
    <g
       style="fill:#0260aa;fill-opacity:1"
       transform="matrix(1.6053197,0,0,1.6053197,-219.2997,25.522394)"
       id="Y">
      <polygon
         style="fill:#0260aa;fill-opacity:1"
         id="polygon28"
         points="308.3,342.3 332.8,369.8 357.8,342.3 374.3,342.3 339,381.8 339,405.8 326.3,405.8 326.3,380.5 290.8,342.3 " />
    </g>
    <path
       style="fill:#0260aa;fill-opacity:1"
       inkscape:connector-curvature="0"
       d="m 484.633,581.44461 c -23.27714,-12.84256 -58.27311,-14.44788 -81.55024,0 -32.90906,23.27714 -34.03278,63.89173 0,88.29259 21.67181,13.64521 58.59417,13.64521 81.55024,0 32.90905,-22.15342 33.39065,-65.01545 0,-88.29259 z m -11.23724,70.95513 c -16.53479,10.91618 -40.93565,11.23724 -60.19949,0 -18.46117,-16.53479 -16.85586,-37.72501 0,-51.85182 12.5215,-12.5215 44.94895,-12.84256 60.19949,0 20.0665,13.32415 17.65852,37.40395 0,51.85182 z"
       id="O" />
    <g
       style="fill:#0260aa;fill-opacity:1"
       transform="matrix(1.6053197,0,0,1.6053197,-219.2997,25.522394)"
       id="R">
      <path
         style="fill:#0260aa;fill-opacity:1"
         inkscape:connector-curvature="0"
         id="path32"
         d="m 521.8,381.5 c 19.4,-4.3 21,-34 -2.5,-39.5 h -54.8 v 63.8 h 13 v -23.4 l 28.2,0.2 17,23.3 H 538 Z m -5.1,-11.8 h -38.5 v -15 h 38.5 c 8.3,2.8 8,13.6 0,15 z" />
    </g>
    <g
       style="fill:#0260aa;fill-opacity:1"
       transform="matrix(1.6053197,0,0,1.6053197,-219.2997,25.522394)"
       id="K">
      <polygon
         style="fill:#0260aa;fill-opacity:1"
         id="polygon35"
         points="607.7,405.8 579,373.9 562.8,386.3 562.8,405.8 549,405.8 549,342 562.7,342 562.7,371.7 602.3,342 622.5,342 589.7,367 624.5,405.8 " />
    </g>
  </g>
</svg>
